<svg width="80" height="80" viewBox="0 0 80 80" fill="none" xmlns="http://www.w3.org/2000/svg">
<path opacity="0.4" d="M40 17.6665V71.0999C40.5667 71.0999 41.1666 70.9998 41.6333 70.7331L41.7668 70.6666C48.1668 67.1666 59.3332 63.4999 66.5666 62.5332L67.5334 62.3998C70.7334 61.9998 73.3333 58.9998 73.3333 55.7998V15.5331C73.3333 11.5664 70.1001 8.56648 66.1334 8.89982C59.1334 9.46648 48.5334 12.9999 42.6001 16.6999L41.7668 17.1998C41.2668 17.4998 40.6333 17.6665 40 17.6665Z" fill="white"/>
<path d="M6.66675 15.5666V55.7999C6.66675 58.9999 9.26672 61.9999 12.4667 62.3999L13.5668 62.5333C20.8334 63.5 32.0335 67.1999 38.4335 70.7332C38.8668 70.9999 39.4001 71.1 40.0001 71.1V17.6666C39.3667 17.6666 38.7333 17.4999 38.2333 17.1999L37.6667 16.8333C31.7334 13.0999 21.1 9.53327 14.1 8.93327H13.9C9.93336 8.59993 6.66675 11.5666 6.66675 15.5666Z" fill="white"/>
<path d="M63.3333 9.2666V23.5665C63.3333 24.8999 61.8666 25.6998 60.7332 24.9665L56.6667 22.2665L52.6001 24.9665C51.5001 25.6998 50 24.8999 50 23.5665V13.0664C54.3667 11.3331 59.2333 9.93327 63.3333 9.2666Z" fill="white"/>
</svg>
