<svg width="80" height="80" viewBox="0 0 80 80" fill="none" xmlns="http://www.w3.org/2000/svg">
<path d="M68.9334 46.3669V46.3335C66.0001 43.2335 61.9001 41.3335 57.3335 41.3335C48.5001 41.3335 41.3335 48.5002 41.3335 57.3336C41.3335 61.4336 42.9001 65.1668 45.4334 68.0002C48.3668 71.2668 52.6001 73.3335 57.3335 73.3335C66.1668 73.3335 73.3334 66.1669 73.3334 57.3336C73.3334 53.1002 71.6667 49.2335 68.9334 46.3669ZM63.3001 60.0336H59.8335V63.6669C59.8335 65.0335 58.7001 66.1669 57.3335 66.1669C55.9668 66.1669 54.8335 65.0335 54.8335 63.6669V60.0336H51.3667C49.9667 60.0336 48.8667 58.9335 48.8667 57.5336C48.8667 56.1669 49.9335 55.0669 51.3335 55.0335H54.8335V51.7002C54.8335 51.6335 54.8335 51.5669 54.8668 51.5002C54.9335 50.2336 56.0335 49.2002 57.3335 49.2002C58.6668 49.2002 59.7668 50.2669 59.8335 51.6002V55.0335H63.3001C64.7001 55.0335 65.8001 56.1669 65.8001 57.5336C65.8001 58.9335 64.7001 60.0336 63.3001 60.0336Z" fill="white"/>
<path opacity="0.4" d="M73.3334 28.9668C73.3334 32.9335 72.7 36.6001 71.6 40.0001C70.9 42.2335 70.0001 44.3668 68.9334 46.3335C66.0001 43.2335 61.9001 41.3335 57.3335 41.3335C48.5001 41.3335 41.3335 48.5002 41.3335 57.3335C41.3335 61.4335 42.9001 65.1668 45.4334 68.0001C44.2001 68.5668 43.0667 69.0335 42.0667 69.3668C40.9334 69.7668 39.0668 69.7668 37.9334 69.3668C29.9001 66.6335 13.6668 56.6668 8.40015 40.0001C7.30015 36.6001 6.66675 32.9335 6.66675 28.9668C6.66675 18.6668 14.9667 10.3335 25.2001 10.3335C31.2334 10.3335 36.6334 13.2668 40.0001 17.7668C43.3667 13.2668 48.7668 10.3335 54.8001 10.3335C65.0334 10.3335 73.3334 18.6668 73.3334 28.9668Z" fill="white"/>
</svg>
