<svg width="433" height="19" viewBox="0 0 433 19" fill="none" xmlns="http://www.w3.org/2000/svg">
<path fill-rule="evenodd" clip-rule="evenodd" d="M409.423 3.85534C408.817 3.90075 408.049 3.87531 407.714 3.79892C407.379 3.72254 407.101 3.71939 407.096 3.79183C407.084 3.96662 404.716 3.83989 404.315 3.64286C404.142 3.55818 403.417 3.48604 402.704 3.48265C401.842 3.4785 401.65 3.53197 402.132 3.64206C402.557 3.73905 401.873 3.78476 400.482 3.75234C398.949 3.71648 398.03 3.63116 397.894 3.51176C397.636 3.28754 395.928 3.14404 395.914 3.34548C395.909 3.42399 396.251 3.54817 396.673 3.62153C397.276 3.72589 397.27 3.74521 396.648 3.711C396.21 3.68686 395.71 3.55936 395.537 3.42752C395.356 3.28946 394.713 3.18526 394.024 3.18186C393.364 3.17869 392.956 3.24039 393.116 3.31901C393.566 3.54004 392.134 3.51724 388.912 3.25187C386.551 3.05755 385.969 3.05981 385.962 3.26317C385.955 3.4617 386.07 3.47954 386.492 3.34585C386.916 3.21152 387.118 3.24144 387.44 3.48635C387.665 3.65751 387.652 3.73266 387.41 3.65344C387.168 3.57423 386.403 3.59289 385.709 3.69486C385.016 3.79688 384.643 3.81216 384.88 3.72899C385.493 3.51409 384.755 3.04071 383.69 2.96552C383.194 2.93057 382.939 2.97568 383.122 3.06563C383.306 3.15577 383.022 3.24044 382.49 3.25416C381.89 3.26956 381.688 3.22599 381.955 3.13885C382.236 3.04676 381.908 3.02876 380.999 3.08645C379.497 3.18149 376.686 3.11775 373.984 2.92755C373.046 2.86152 372.275 2.86645 372.27 2.93827C372.265 3.01024 371.704 2.99291 371.023 2.89964C370.343 2.80652 369.434 2.77119 369.004 2.82119C368.574 2.87099 366.903 2.80571 365.292 2.67589C363.457 2.52805 362.502 2.50858 362.737 2.62394C362.973 2.73986 362.335 2.72411 361.014 2.5816C358.882 2.35148 352.377 2.20929 350.312 2.34778C349.689 2.38958 348.64 2.34254 347.983 2.24325C347.327 2.14401 346.784 2.13297 346.778 2.21866C346.772 2.3045 346.072 2.29377 345.223 2.19467C344.241 2.08034 343.669 2.08661 343.655 2.21178C343.638 2.3473 343.448 2.32261 343.047 2.13286C342.677 1.95821 342.454 1.92633 342.439 2.046C342.427 2.15003 342.001 2.16522 341.493 2.0799C340.985 1.99443 340.565 1.99045 340.559 2.07099C340.553 2.15138 337.75 2.14912 334.33 2.06572C330.909 1.98232 328.107 1.95747 328.104 2.01044C328.1 2.0634 327.608 2.08206 327.011 2.05197C326.413 2.02189 324.287 1.98782 322.284 1.97633C320.282 1.96469 318.255 1.88973 317.78 1.80984C317.304 1.72992 316.91 1.72844 316.905 1.8068C316.894 1.96088 313.662 1.71956 312.655 1.48941C312.316 1.4121 311.896 1.39561 311.721 1.45275C311.546 1.50993 310.366 1.50104 309.099 1.43322C307.831 1.36524 306.342 1.33311 305.79 1.3619C305.237 1.39053 303.807 1.35851 302.612 1.29067C301.418 1.22282 298.058 1.16654 295.146 1.1655C292.233 1.16446 288.731 1.13184 287.363 1.09309C284.756 1.019 279.537 1.00019 269.613 1.02869C268.071 1.03306 266.468 1.07652 266.052 1.1251C265.634 1.17363 265.025 1.15207 264.696 1.07705C264.368 1.00189 263.891 1.00835 263.637 1.09126C263.328 1.19234 263.45 1.21908 264.005 1.17235C264.59 1.12343 264.726 1.16445 264.463 1.31094C264.244 1.43298 264.44 1.54383 264.934 1.57869C265.398 1.61145 265.682 1.5903 265.565 1.5318C265.448 1.47347 266.44 1.49163 267.77 1.57264C269.099 1.65345 270.186 1.73921 270.184 1.7632C270.183 1.78703 267.308 1.80043 263.797 1.79279C260.285 1.78515 257.27 1.80989 257.096 1.84771C256.319 2.01651 251.975 1.66425 251.301 1.37805C250.669 1.10957 250.212 1.08594 246.552 1.13249C242.883 1.17925 241.789 1.16668 239.205 1.04772C238.758 1.02729 238.557 1.09176 238.76 1.1912C238.97 1.29469 238.72 1.30332 238.172 1.21127C236.903 0.997684 236.968 0.75335 238.27 0.84521C238.837 0.885278 239.14 0.86501 238.942 0.800162C238.745 0.735159 237.975 0.68773 237.232 0.694476C236.229 0.703701 235.962 0.799453 236.193 1.06599C236.485 1.40188 236.452 1.40319 235.685 1.08401C235.139 0.856635 234.721 0.790479 234.429 0.885615C234.112 0.988973 233.755 0.961128 233.131 0.784115C232.511 0.608587 232.265 0.589195 232.256 0.714916C232.25 0.811037 231.809 0.859003 231.278 0.821514C230.67 0.778603 230.479 0.83761 230.763 0.980906C231.045 1.12309 230.81 1.09568 230.135 0.907444C229.243 0.659169 228.963 0.636394 228.53 0.777904C228.241 0.872125 227.561 0.87472 227.019 0.78357C226.477 0.692376 226.029 0.677394 226.024 0.750303C226.012 0.920423 220.533 0.884181 219.766 0.70868C219.445 0.635683 219.179 0.647852 219.172 0.736028C219.166 0.824048 218.781 0.832111 218.317 0.754106C217.853 0.676102 217.082 0.676629 216.604 0.755484C215.389 0.956083 212.037 0.801591 212.705 0.575896C213.108 0.440076 213.018 0.431818 212.24 0.533539C211.71 0.603023 211.096 0.600867 210.875 0.528637C210.655 0.456406 210.47 0.46153 210.464 0.540003C210.458 0.618676 209.547 0.62592 208.438 0.556431C206.418 0.429539 202.729 0.411453 186.486 0.448718C181.689 0.459772 176.564 0.462616 175.098 0.454988C173.632 0.447358 172.59 0.518675 172.783 0.61337C172.976 0.708421 172.694 0.711863 172.155 0.621044C171.608 0.529032 170.602 0.545291 169.874 0.657678C169.158 0.768248 168.463 0.833465 168.33 0.802473C168.197 0.771482 167.878 0.739607 167.621 0.731356C167.365 0.723105 166.692 0.672372 166.127 0.618413C165.562 0.564567 164.915 0.580475 164.691 0.653876C164.441 0.735343 164.719 0.783311 165.405 0.777258C166.414 0.768271 166.427 0.781228 165.529 0.905174C164.98 0.981179 164.634 1.13209 164.76 1.24073C164.886 1.34937 164.674 1.46479 164.288 1.4972C163.891 1.53038 163.643 1.46827 163.716 1.35368C163.979 0.94249 163.72 0.59461 163.117 0.552092C162.776 0.528034 162.49 0.613506 162.481 0.742031C162.472 0.870555 161.976 0.940153 161.38 0.896825C160.453 0.829361 160.432 0.805353 161.236 0.732438C163.019 0.570506 160.69 0.528446 156.761 0.651521C154.648 0.717703 152.549 0.745725 152.097 0.713792C151.643 0.681816 151.269 0.719264 151.263 0.796846C151.258 0.874584 150.655 0.856145 149.923 0.755972C149.018 0.631978 148.729 0.640858 149.019 0.7833C149.296 0.919484 149.108 0.936116 148.482 0.830873C147.952 0.741688 147.098 0.726141 146.583 0.796139C146.069 0.865981 145.643 0.861499 145.637 0.785933C145.632 0.710566 145.208 0.755974 144.696 0.886855C144.184 1.01794 143.768 1.08016 143.772 1.02532C143.775 0.970482 142.73 0.961536 141.449 1.00529C140.167 1.04904 137.434 1.05421 135.374 1.0164C132.522 0.964349 131.646 1.01169 131.7 1.21513C131.752 1.40818 131.565 1.42381 131.027 1.2716C130.519 1.12755 130.047 1.10256 129.541 1.19254C129.133 1.26503 128.803 1.26666 128.808 1.19624C128.813 1.12567 128.392 1.12575 127.874 1.19637C127.355 1.267 126.934 1.27253 126.938 1.20865C126.943 1.14478 126.534 1.14869 126.031 1.21725C125.527 1.28565 124.757 1.2639 124.321 1.16893C123.884 1.07376 123.741 1.07164 124.002 1.16394C124.263 1.25628 123.867 1.37048 123.121 1.41773C122.235 1.47377 122.006 1.55859 122.461 1.66255C122.844 1.74983 123.163 1.73962 123.17 1.63976C123.177 1.5399 123.578 1.52452 124.061 1.60591C124.545 1.68714 125.256 1.68159 125.643 1.59381C126.035 1.50467 126.924 1.51323 127.653 1.61307C128.488 1.72741 128.818 1.72173 128.565 1.59757C128.311 1.47291 128.647 1.4684 129.5 1.5853C130.466 1.71747 130.703 1.70445 130.364 1.53774C130.003 1.36038 130.172 1.36496 131.104 1.55786C131.925 1.72793 132.518 1.77146 132.956 1.69371C133.393 1.61595 133.71 1.66316 133.943 1.84105C134.19 2.02863 134.007 2.05548 133.294 1.9357C132.672 1.83123 132.451 1.84238 132.702 1.96558C132.959 2.09211 132.607 2.09979 131.712 1.98703C130.576 1.8438 130.49 1.85557 131.24 2.05139C131.957 2.2387 131.767 2.24031 130.368 2.05889C129.107 1.89526 128.703 1.88801 129 2.0341C129.272 2.16755 129.082 2.18421 128.467 2.08084C127.941 1.99239 127.506 1.9955 127.499 2.08773C127.493 2.1798 127.072 2.18533 126.564 2.10001C126.055 2.01449 125.634 2.02972 125.627 2.13379C125.619 2.24066 125.198 2.25304 124.658 2.16217C124.132 2.07388 123.831 2.0645 123.987 2.14146C124.144 2.21842 123.456 2.34113 122.457 2.41395C121.203 2.50533 120.516 2.48442 120.234 2.34601C119.973 2.21747 120.114 2.2113 120.629 2.3291C121.165 2.45126 121.287 2.44109 120.996 2.2983C120.756 2.18056 120.294 2.10674 119.967 2.13411C119.641 2.16148 119.516 2.25366 119.689 2.33916C119.863 2.42456 119.166 2.48154 118.14 2.46596C117.115 2.45026 116.086 2.49931 115.854 2.57499C115.573 2.66666 115.983 2.7167 117.082 2.72493C118.842 2.7381 119.426 3.04612 117.772 3.08848C117.257 3.10178 116.83 3.20608 116.822 3.32042C116.813 3.43477 116.481 3.55551 116.083 3.5888C115.595 3.62981 115.532 3.59012 115.887 3.46696C116.178 3.36644 115.752 3.37831 114.94 3.49329C114.063 3.61766 113.689 3.62308 114.017 3.50645C114.503 3.33405 114.434 3.32826 113.442 3.45895C112.822 3.54061 111.933 3.59452 111.466 3.57896C109.488 3.51248 100.253 3.69047 99.8892 3.80207C99.646 3.87665 99.3311 3.84535 99.0794 3.7216C98.8531 3.61028 99.0328 3.5439 99.4792 3.57415C100.075 3.61431 100.047 3.568 99.3725 3.39972C98.6642 3.22292 98.7898 3.21832 99.9191 3.37927C100.845 3.51113 101.245 3.51967 101.007 3.40249C100.783 3.29259 101.103 3.282 101.795 3.37668C103.213 3.57083 104.201 3.31822 102.888 3.09728C102.152 2.97366 102.115 2.90794 102.714 2.78946C103.542 2.6257 104.646 2.77531 104.048 2.97034C103.847 3.03628 103.994 3.11223 104.375 3.13913C104.756 3.16603 104.863 3.25501 104.613 3.33678C104.345 3.42403 104.432 3.46238 104.823 3.4297C105.188 3.39896 105.359 3.23205 105.202 3.0588C104.966 2.79761 105.476 2.74702 108.18 2.76368C110.966 2.78069 111.225 2.753 109.96 2.57387L108.479 2.36395L110.03 2.45539C110.883 2.50572 112.004 2.50314 112.522 2.44965C113.788 2.31884 109.882 2.23124 106.984 2.32547C105.816 2.36358 104.725 2.35081 104.562 2.29718C104.399 2.24371 105.587 2.15112 107.203 2.0914C108.914 2.02843 109.977 1.90183 109.747 1.78885C109.478 1.6565 108.92 1.63296 107.999 1.71452C105.792 1.91055 101.341 1.99457 101.352 1.84003C101.357 1.76136 101.852 1.69939 102.451 1.70222C103.179 1.70579 103.026 1.6667 101.993 1.5845C101.141 1.51688 98.0576 1.50724 95.1413 1.56322C92.2249 1.6192 89.2087 1.65921 88.438 1.6521C87.6672 1.64484 87.0328 1.70106 87.0275 1.77677C87.0221 1.85233 86.8097 1.88712 86.5548 1.85395C85.814 1.75737 78.7551 2.10078 77.4042 2.29917C76.662 2.40806 76.3811 2.4078 76.6966 2.29855C77.0542 2.17474 76.5951 2.16551 75.2483 2.26932C74.1641 2.35281 73.2726 2.47621 73.2678 2.54352C73.2631 2.61066 72.979 2.64588 72.6362 2.62169C72.2934 2.5975 70.6078 2.64827 68.8904 2.73468C66.9629 2.83148 65.7687 2.8222 65.771 2.71026C65.773 2.61052 65.4094 2.67927 64.9634 2.86307C64.5168 3.04684 63.8808 3.17918 63.5497 3.15707C63.2192 3.13516 62.6034 3.14744 62.1815 3.18468C61.7597 3.22176 60.3754 3.21239 59.1043 3.16371C57.8337 3.11507 56.3533 3.13648 55.8134 3.21142C55.0044 3.32389 49.3756 3.52884 48.2822 3.48566C47.3124 3.44728 40.118 3.85769 33.6143 4.32217C25.4808 4.90304 20.5407 5.48458 20.9694 5.81058C21.1189 5.92431 20.8337 6.07296 20.3356 6.14067C19.8367 6.20849 19.4198 6.3956 19.4085 6.55637C19.3884 6.84131 19.772 6.90548 23.1028 7.17387C24.2407 7.2656 24.6454 7.38496 24.6285 7.62393C24.6159 7.80294 24.9804 8.09278 25.4378 8.26816C26.196 8.55854 25.9608 8.63338 24.7227 8.49638C24.4674 8.46819 24.2541 8.51529 24.248 8.60098C24.2348 8.78839 24.8795 8.84281 25.9721 8.7469C26.4159 8.70792 26.6067 8.54682 26.398 8.3879C26.1775 8.22016 26.3215 8.12104 26.7418 8.1507C27.1392 8.17874 27.2995 8.25565 27.098 8.32159C26.8958 8.38748 27.028 8.50922 27.391 8.59214C27.8183 8.68977 27.672 8.78513 26.9738 8.86314C26.209 8.94852 25.9887 9.12163 26.2128 9.45981C26.5112 9.90985 26.2638 9.95533 21.7346 10.2836C11.3224 11.0384 10.1627 11.1579 7.41226 11.7587C5.84623 12.101 4.33319 12.328 4.04994 12.2634C3.04937 12.0348 0.694356 12.9284 0.350688 13.6669C0.0621295 14.2866 0.175021 14.4173 1.05217 14.4792C1.62681 14.5198 1.95572 14.5993 1.78228 14.656C1.60883 14.7126 1.9908 14.8794 2.6308 15.0266C3.62941 15.2565 3.73998 15.2521 3.41046 14.9955C3.08859 14.7453 3.17811 14.7391 3.96077 14.957C4.47459 15.1002 5.06276 15.1874 5.2678 15.151C6.11255 15.001 6.94566 15.3868 6.30843 15.6329C5.90048 15.7905 5.87999 15.9309 6.25276 16.0159C6.57586 16.0897 6.67599 16.2421 6.47495 16.3542C6.23561 16.4883 6.50526 16.587 7.26079 16.6419C8.12789 16.7049 8.20551 16.7436 7.57552 16.7989C6.91293 16.857 6.9597 16.9093 7.80256 17.051C9.23584 17.2921 9.46719 17.2272 9.98125 16.4401C10.035 16.3578 10.3326 16.476 10.643 16.7027C11.0008 16.9643 10.9854 17.1652 10.6005 17.2528C10.232 17.3366 10.2082 17.4963 10.5394 17.659C11.0078 17.8892 11.2445 17.8984 12.2125 17.7242C13.2757 17.5327 13.277 17.5228 12.2405 17.5478C11.4068 17.568 11.2375 17.5206 11.5404 17.3512C11.7603 17.2285 12.187 17.1844 12.4893 17.2535C12.7909 17.3224 13.0631 17.3236 13.0946 17.2561C13.2596 16.8955 13.6742 16.5818 14.0693 16.5184C14.5224 16.4457 13.8679 17.4128 13.2181 17.7756C12.9573 17.9215 13.3741 18.0103 14.7887 18.1101C16.1115 18.2035 16.72 18.1708 16.7317 18.0055C16.7489 17.7612 18.5869 17.8727 19.2675 18.1595C19.4635 18.2421 19.9949 18.2251 20.4489 18.1219C21.1428 17.964 21.1215 17.9383 20.3127 17.959C19.0757 17.9908 18.2678 17.601 19.2198 17.4319C19.7699 17.3342 20.0562 17.3558 20.3916 17.5205C20.7077 17.6759 21.9578 17.6525 24.7327 17.4392C28.3619 17.1602 29.5051 16.9567 28.0266 16.8524C27.6857 16.8283 27.4014 16.8846 27.3948 16.9773C27.3883 17.0702 27.0367 17.0906 26.6129 17.0228C25.8497 16.9006 22.4866 17.1602 21.6356 17.407C21.3926 17.4775 21.0292 17.4815 20.8282 17.4156C20.332 17.253 26.7388 16.4484 27.8862 16.5293C28.4007 16.5656 28.667 16.4917 28.4943 16.3604C28.2809 16.1983 28.6354 16.1711 29.6519 16.271C30.4568 16.3502 31.485 16.3283 31.9367 16.2225C32.4137 16.1106 32.4569 16.0539 32.0397 16.0869C31.645 16.1182 31.1609 16.0213 30.9647 15.8717C30.4479 15.479 30.5553 15.352 31.1584 15.6419C31.9032 15.9997 34.3209 15.939 34.3475 15.5618C34.3605 15.3775 35.005 15.241 35.976 15.2169C36.8603 15.195 37.9772 15.117 38.459 15.0437C40.3759 14.7517 41.1473 14.67 43.0428 14.5585C45.0884 14.4381 45.5968 14.3325 44.2479 14.3079C43.4042 14.2927 41.3496 14.3461 40.3471 14.4093C40.003 14.4309 40.4319 14.3107 41.3004 14.142C42.1689 13.9733 43.2447 13.8598 43.6912 13.8897C44.1519 13.9207 44.3143 13.8518 44.0675 13.7305C43.7718 13.5853 43.972 13.5737 44.6887 13.6943C45.3524 13.8058 45.5994 13.8002 45.3526 13.679C45.1364 13.5728 45.3351 13.5287 45.7943 13.5808C47.2529 13.7467 50.0545 13.6832 50.0686 13.4841C50.0855 13.2442 53.0496 13.0952 53.3096 13.3211C53.5555 13.535 58.8043 13.25 58.8323 13.0212C58.8476 12.9012 58.9986 12.9069 59.2983 13.039C59.5913 13.168 60.7018 13.1802 62.557 13.0748C64.1051 12.9871 64.9535 12.8828 64.4423 12.8432C63.7131 12.7868 63.7497 12.7535 64.6139 12.6886C65.2196 12.6432 65.9596 12.6621 66.2594 12.7305C66.5586 12.7988 67.5339 12.8115 68.4266 12.7585C70.0475 12.6625 70.0482 12.662 68.7124 12.4161C67.5188 12.1963 67.4916 12.1666 68.4583 12.1417C69.0543 12.1264 69.3964 12.1615 69.2185 12.2198C69.0405 12.278 69.719 12.3838 70.7269 12.4549C71.7349 12.526 72.5634 12.5258 72.5685 12.4543C72.5829 12.2493 74.3012 12.4248 74.6331 12.6653C74.7973 12.7845 74.9675 12.6931 75.0106 12.4619C75.0647 12.1725 75.3518 12.086 75.9336 12.1838C76.3978 12.2618 76.958 12.2251 77.1784 12.1021C77.4081 11.9735 77.3185 11.9002 76.9664 11.9297C76.6154 11.9591 76.5234 11.8863 76.751 11.7595C77.157 11.5324 78.5313 11.6382 78.5423 11.8973C78.5454 11.9766 78.9011 12.2071 79.3322 12.4097C79.934 12.6927 80.0418 12.7094 79.7975 12.4817C79.438 12.1467 80.4143 12.1448 80.876 12.4795C81.0923 12.6365 81.1919 12.646 81.2368 12.5139C81.2706 12.4134 80.7662 12.1984 80.1149 12.0358C78.8574 11.7218 79.3894 11.2629 80.6714 11.5556C81.0516 11.6424 81.2399 11.7537 81.0894 11.8029C80.939 11.8519 81.1879 12.0935 81.6421 12.3399C82.3778 12.7383 82.4745 12.7536 82.522 12.4783C82.5619 12.2487 82.7069 12.2322 83.0853 12.4139C83.7168 12.7174 84.4124 12.7745 85.0277 12.5735C85.3651 12.4633 85.6139 12.4771 85.9095 12.6223C86.1359 12.7336 86.0096 12.8026 85.6283 12.7757C85.2471 12.7488 85.1286 12.8219 85.3646 12.938C85.6344 13.0702 85.5248 13.0874 85.0723 12.984C84.2765 12.8023 80.6362 12.8939 80.6219 13.0962C80.617 13.1659 80.3732 13.1685 80.0808 13.1016C79.3592 12.9367 74.8598 13.1786 75.3938 13.3536C75.7743 13.4782 74.2016 13.4478 72.9488 13.3064C72.3511 13.2388 73.4899 13.9016 74.2826 14.0826C74.5947 14.1538 75.0347 14.1518 75.2604 14.0782C75.4862 14.0044 75.335 13.9397 74.9242 13.9344C74.514 13.9291 74.0528 13.8253 73.9001 13.7037C73.7049 13.5479 74.0962 13.5378 75.2263 13.6695C76.1087 13.7723 76.8344 13.7993 76.8394 13.7293C76.851 13.5648 82.3579 13.4522 84.1699 13.5795C84.9374 13.6335 85.5687 13.6204 85.5737 13.5506C85.5786 13.4808 86.4035 13.4362 87.4066 13.4515C88.4098 13.4669 89.5339 13.4105 89.9049 13.3261C90.2759 13.2418 92.2659 13.1237 94.3272 13.0638C96.3885 13.004 98.0818 12.862 98.0899 12.7483C98.0979 12.6347 98.3926 12.6074 98.7445 12.6879C99.0964 12.7683 99.7928 12.7784 100.292 12.7105C100.817 12.6391 101.875 12.6777 102.803 12.8022C103.684 12.9205 104.267 12.9495 104.098 12.8666C103.93 12.7838 105.456 12.6715 107.49 12.6172C109.525 12.563 111.193 12.4623 111.197 12.3936C111.202 12.3249 111.697 12.267 112.297 12.2648C112.896 12.2625 115.325 12.2167 117.693 12.163C120.062 12.1092 122.234 12.1187 122.52 12.184C122.806 12.2495 123.046 12.2246 123.053 12.1288C123.059 12.033 123.341 12.0176 123.678 12.0946C124.015 12.1716 124.296 12.1737 124.301 12.0991C124.306 12.0246 125.704 11.972 127.408 11.9825C129.111 11.993 131.194 11.9153 132.035 11.8098C132.876 11.7042 133.707 11.6281 133.88 11.6403C134.054 11.6526 135.555 11.6066 137.215 11.5383C138.876 11.4699 140.795 11.429 141.479 11.4474C142.163 11.4657 143.285 11.4516 143.973 11.4159C144.661 11.3804 146.013 11.3352 146.976 11.3155C147.941 11.2958 148.604 11.2178 148.45 11.1423C148.296 11.0666 148.772 11.0397 149.507 11.0823C150.805 11.1576 163.691 10.9051 168.625 10.7077C169.971 10.654 170.903 10.5277 170.699 10.4274C170.474 10.3169 170.759 10.3174 171.421 10.4287C172.233 10.5654 172.426 10.5456 172.171 10.3518C171.933 10.1713 172.495 10.0681 173.994 10.0169C175.185 9.97616 176.164 9.89255 176.168 9.83102C176.172 9.76964 175.989 9.75248 175.761 9.79304C175.532 9.8336 174.962 9.75778 174.492 9.62475C174.022 9.49167 173.682 9.45063 173.736 9.53366C173.959 9.87729 173.615 9.93094 172.752 9.6864C172.001 9.47373 171.833 9.47263 171.818 9.67967C171.808 9.81863 171.365 9.90165 170.834 9.86416C170.302 9.82667 170.033 9.74175 170.236 9.67543C170.617 9.55094 168.661 9.52874 165.387 9.62043C164.142 9.65546 163.319 9.60006 162.597 9.43294C161.767 9.24062 161.85 9.2346 163.038 9.40157C164.1 9.5509 164.379 9.54646 164.051 9.38557C163.723 9.22433 163.979 9.22092 164.987 9.37329C165.87 9.50686 166.236 9.51533 165.995 9.39684C165.773 9.28789 166.681 9.24044 168.178 9.28241C169.588 9.32191 174.006 9.30926 177.995 9.25418C181.985 9.19922 185.318 9.16032 185.404 9.16761C187.388 9.33927 188.051 9.32969 187.679 9.13498C187.441 9.01063 187.472 8.97693 187.746 9.06002C188.021 9.14326 188.679 9.15449 189.21 9.085C189.979 8.98432 190.077 8.99154 189.695 9.12066C189.432 9.20978 189.511 9.30341 189.872 9.32887C190.233 9.35433 190.534 9.30088 190.54 9.21021C190.547 9.11954 190.822 9.10685 191.151 9.18206C191.48 9.25728 192.948 9.3192 194.412 9.31965C195.876 9.31993 197.702 9.34483 198.469 9.37486C199.237 9.40474 200.497 9.41963 201.27 9.40797C203.194 9.37883 202.988 9.37697 205.942 9.44895C207.396 9.48434 208.589 9.46754 208.593 9.4113C208.597 9.35522 209.366 9.37256 210.303 9.44996C211.24 9.52752 212.808 9.57806 213.788 9.5625C215.144 9.54106 215.702 9.59547 216.12 9.78999C216.571 9.99933 216.84 10.0025 217.61 9.80805C218.285 9.63726 218.547 9.63387 218.542 9.79559C218.538 9.97563 218.642 9.98707 219.067 9.85263C219.359 9.76034 220.487 9.74101 221.574 9.8099C222.662 9.87884 223.704 9.88523 223.892 9.82409C224.079 9.76307 224.457 9.76458 224.733 9.82757C225.009 9.89052 225.562 9.86743 225.962 9.77637C226.363 9.68535 227.194 9.67983 227.81 9.76414C228.425 9.84842 229.395 9.83465 229.965 9.73347C230.535 9.63229 231.321 9.62284 231.713 9.71233C232.156 9.81344 232.263 9.79528 231.996 9.66401C231.76 9.54793 231.892 9.47585 232.289 9.50389C232.686 9.53192 232.871 9.44723 232.697 9.31554C232.472 9.14398 232.763 9.12397 233.726 9.24518C234.698 9.36751 234.843 9.35701 234.248 9.207C233.624 9.04999 233.821 9.00875 235.061 9.03657C236.59 9.07087 236.63 9.08654 235.683 9.27888C234.404 9.53869 235.562 9.85647 237.068 9.65885C237.944 9.5439 238.019 9.55126 237.558 9.70658C237.131 9.85024 237.272 9.882 238.207 9.85194C238.864 9.83101 239.962 9.81457 240.647 9.81564C241.333 9.81671 242.036 9.78631 242.21 9.74802C242.384 9.70957 244.07 9.65538 245.956 9.62724C252.118 9.53566 255.32 9.3568 255.328 9.10419C255.333 8.96234 255.141 8.91184 254.87 8.98368C254.184 9.16544 250.41 8.8597 249.832 8.57573C249.558 8.44136 249.093 8.32571 248.798 8.31879C248.502 8.31173 248.163 8.22113 248.044 8.11753C247.925 8.01377 248.063 7.95614 248.349 7.98922C250.055 8.18633 251.692 8.19266 251.301 8.00069C251.008 7.85683 251.201 7.84319 251.89 7.95913C252.453 8.05383 252.919 8.06338 252.925 7.98051C252.931 7.89747 253.231 7.85041 253.592 7.87587C253.953 7.90133 254.033 7.99512 253.769 8.08408C253.387 8.2132 253.485 8.22042 254.255 8.11973C254.785 8.05025 255.444 8.06148 255.718 8.14472C255.993 8.22781 256.022 8.19406 255.784 8.0694C255.503 7.92227 255.966 7.83028 257.105 7.80703C260.102 7.7459 261.618 7.62104 261.499 7.44496C261.436 7.35193 262.451 7.27272 263.752 7.26891C265.054 7.26499 265.901 7.18477 265.634 7.09044C265.367 6.99614 265.47 6.98852 265.863 7.07373C266.256 7.1589 266.747 7.15193 266.954 7.05836C267.255 6.92254 267.401 6.93271 267.678 7.10852C267.87 7.22959 268.492 7.36052 269.059 7.39934C269.876 7.45508 269.918 7.42926 269.261 7.27659C268.681 7.14174 268.64 7.0657 269.123 7.02512C269.505 6.99318 269.814 7.01481 269.81 7.07307C269.805 7.13149 270.156 7.13447 270.588 7.07977C271.02 7.02496 272.628 7.0797 274.161 7.20152C275.728 7.32585 277.314 7.36013 277.782 7.27964C278.766 7.11077 280.64 7.20782 280.059 7.3976C279.839 7.46955 279.421 7.47421 279.131 7.40783C278.84 7.34144 278.418 7.34751 278.192 7.42113C277.966 7.49491 278.117 7.5596 278.528 7.56494C278.938 7.57025 279.396 7.67127 279.545 7.78932C279.779 7.97525 278.573 7.99491 277.076 7.8293C276.821 7.80111 276.607 7.85289 276.601 7.94434C276.594 8.03984 277.121 8.10581 277.836 8.09928C278.551 8.09275 279.078 8.15872 279.071 8.25422C279.064 8.34567 278.851 8.39745 278.595 8.36926C278.34 8.34091 277.922 8.32031 277.664 8.32312C276.448 8.33639 275.605 8.25157 275.199 8.07496C274.936 7.96043 274.744 7.98522 274.728 8.13562C274.699 8.40117 272.872 8.48845 270.499 8.33729C269.732 8.28848 269.099 8.3124 269.094 8.3906C269.088 8.46881 268.677 8.46435 268.18 8.38091C267.683 8.29732 267.094 8.28819 266.872 8.36083C266.65 8.43332 266.081 8.42756 265.607 8.34797C265.133 8.26817 264.742 8.26029 264.737 8.33024C264.732 8.40003 264.114 8.4826 263.363 8.51352C262.146 8.56373 262.115 8.58952 263.067 8.74973C263.705 8.85689 263.988 8.8565 263.769 8.74882C263.566 8.64937 263.766 8.59425 264.212 8.62652C264.658 8.65864 268.474 8.66391 272.691 8.63817C279.106 8.59909 280.314 8.54347 280.093 8.29818C279.786 7.95855 280.384 7.96206 281.434 8.30625C282.003 8.49241 282.169 8.49007 282.183 8.29549C282.195 8.12475 282.58 8.09713 283.394 8.20857C284.05 8.29842 285.604 8.35937 286.848 8.34413C288.091 8.32885 289.503 8.32951 289.986 8.34574C290.468 8.36193 291.06 8.34014 291.302 8.29739C291.955 8.18126 292.904 8.27863 292.478 8.41797C292.256 8.49057 292.794 8.53778 293.835 8.53687C294.784 8.53588 296.44 8.60452 297.515 8.68913C298.589 8.77375 299.343 8.78123 299.19 8.7059C299.036 8.6304 299.375 8.60156 299.943 8.64163C300.569 8.68581 300.84 8.79038 300.631 8.90732C300.388 9.04254 300.643 9.10171 301.485 9.10581C302.144 9.10898 302.688 9.0456 302.694 8.96475C302.7 8.88405 302.422 8.84162 302.078 8.87053C301.733 8.89944 301.456 8.85311 301.462 8.76774C301.468 8.68237 302.011 8.66072 302.668 8.71963C303.326 8.77855 303.739 8.86723 303.588 8.91665C303.436 8.9661 304.014 8.97476 304.871 8.93549C305.728 8.89638 306.435 8.80792 306.443 8.73877C306.45 8.66962 306.763 8.6831 307.138 8.76876C307.513 8.85437 308.031 8.8554 308.289 8.77119C308.547 8.68686 309.638 8.67368 310.714 8.74174C311.788 8.80991 312.673 8.80219 312.679 8.72445C312.684 8.64672 312.969 8.64723 313.311 8.72543C313.654 8.80378 313.77 8.9217 313.568 8.98759C313.366 9.05353 313.508 9.12918 313.885 9.15573C314.26 9.18224 314.494 9.08272 314.404 8.93469C314.314 8.78646 314.591 8.65934 315.02 8.65185C315.449 8.64455 315.794 8.71447 315.788 8.80732C315.781 8.90017 316.084 8.99782 316.462 9.02446C316.839 9.0511 316.995 8.9564 316.808 8.81401C316.621 8.67166 316.768 8.57635 317.135 8.60229C317.537 8.63067 317.638 8.79305 317.386 9.01139C316.903 9.43122 316.805 9.41472 319.548 9.37549C322.006 9.34037 324.519 8.96677 323.013 8.86048C322.51 8.825 321.389 8.81368 320.521 8.83524C319.652 8.85677 318.806 8.80754 318.639 8.72563C318.473 8.64392 319.47 8.57164 320.855 8.56523C322.879 8.55562 323.565 8.60716 324.361 8.82851C325.201 9.0622 325.267 9.06248 324.8 8.83006C323.886 8.37508 324.015 8.21338 325.243 8.27669C325.886 8.30981 326.406 8.40684 326.4 8.49222C326.394 8.57759 326.045 8.5717 325.623 8.47898C325.201 8.3863 325.376 8.50027 326.013 8.73212C327.305 9.20315 328.178 9.35838 326.994 8.90658C326.579 8.74809 326.483 8.62815 326.781 8.64011C327.079 8.65187 327.742 8.67553 328.255 8.69261C328.768 8.70954 329.746 8.75055 330.429 8.78371C331.46 8.83373 331.33 8.76696 329.663 8.38977C327.104 7.81086 326.516 7.76721 328.37 8.29396C329.163 8.51919 329.463 8.68127 329.037 8.65413C328.611 8.62689 328.266 8.54259 328.271 8.46703C328.276 8.39132 327.656 8.23796 326.893 8.1262L325.506 7.92325L327.068 7.86046C327.927 7.82589 329.403 7.76314 330.348 7.7212C332.117 7.64247 332.593 7.77376 331.343 7.99572C330.954 8.06485 330.184 8.05312 329.632 7.96984C328.815 7.84645 328.789 7.85872 329.491 8.03581C330.447 8.27707 332.021 8.29344 332.038 8.06225C332.043 7.98062 332.328 7.97802 332.671 8.05622C333.014 8.13457 333.129 8.25248 332.927 8.31838C332.413 8.48643 334.096 8.5836 334.937 8.43436C335.317 8.3668 336.706 8.35251 338.023 8.40272C339.34 8.45277 340.687 8.44888 341.016 8.39413C341.346 8.33927 342.134 8.331 342.767 8.37571C343.401 8.42041 343.795 8.39527 343.641 8.31993C343.488 8.24444 344.034 8.22004 344.854 8.26556C345.674 8.31093 346.34 8.42649 346.334 8.52215C346.327 8.6178 346.767 8.57104 347.311 8.41811C347.855 8.26502 348.948 8.18557 349.739 8.24143C350.53 8.29724 352.187 8.30844 353.42 8.26631C356.433 8.16326 357.328 8.23586 356.224 8.49342C355.47 8.66944 355.489 8.69316 356.367 8.67277C356.923 8.65975 358.677 8.69173 360.263 8.74369C361.85 8.7957 363.332 8.77816 363.557 8.70449C363.782 8.63098 363.67 8.59556 363.308 8.62589C362.946 8.65627 362.498 8.56498 362.311 8.4231C362.125 8.28126 361.694 8.1456 361.353 8.12154C361.012 8.09748 360.886 8.19429 361.073 8.33663C361.513 8.67145 360.414 8.59389 359.437 8.22124C358.678 7.93175 359.228 7.90554 361.781 8.10969C362.208 8.14383 362.561 8.09769 362.567 8.00718C362.574 7.91682 362.759 7.90188 362.98 7.97411C363.2 8.04634 363.762 8.05355 364.228 7.99016C364.694 7.92676 366.539 7.96256 368.329 8.06991C370.118 8.1771 372.408 8.23866 373.418 8.20657C375.01 8.15594 375.482 8.20754 376.973 8.59472C378.434 8.97434 378.695 9.00382 378.71 8.79054C378.724 8.58911 379.121 8.58929 380.734 8.79188C381.838 8.93053 382.941 9.13718 383.184 9.25128C383.428 9.36523 383.635 9.40381 383.645 9.3369C383.655 9.26995 384.286 9.33607 385.046 9.48365C386.406 9.74777 386.405 9.74519 384.988 9.32846C384.196 9.09549 383.841 8.92562 384.199 8.9509C384.558 8.97623 384.999 9.06933 385.179 9.15796C385.359 9.24649 386.216 9.40335 387.082 9.50642C387.948 9.6095 388.512 9.6463 388.335 9.58829C388.158 9.53022 388.645 9.44699 389.416 9.40329C390.553 9.33883 390.907 9.376 391.277 9.59874C391.574 9.77834 391.667 9.72586 391.543 9.44734C391.36 9.03852 391.502 9.02707 394.96 9.17248C396.946 9.25589 398.735 9.27021 398.937 9.20401C399.154 9.1332 399.804 9.19818 400.521 9.36215C401.516 9.58982 401.849 9.60563 402.346 9.4486C402.859 9.28647 402.952 9.30087 402.943 9.54104C402.934 9.80041 403.021 9.80985 403.93 9.6484C404.478 9.55103 405.181 9.5292 405.491 9.6001C406.351 9.79649 406.151 9.90785 405.276 9.71991C404.663 9.5883 404.661 9.60824 405.269 9.81977C405.817 10.0103 406.221 10.0502 406.715 9.9625C407.209 9.87477 407.214 9.79792 406.733 9.68802C405.694 9.45081 407.169 9.00617 408.649 9.11054C409.338 9.15923 409.736 9.11681 409.531 9.01626C408.965 8.73819 409.645 8.83738 410.721 9.1896C411.247 9.36215 411.682 9.42812 411.689 9.33621C411.695 9.24445 412.816 9.2481 414.18 9.34433C415.544 9.44057 416.655 9.59361 416.648 9.68428C416.642 9.77495 416.292 9.77202 415.87 9.67759C415.363 9.56399 415.389 9.61703 415.948 9.83418C416.805 10.1674 417.548 10.1732 417.571 9.84664C417.587 9.62153 419.495 9.65552 420.874 9.90528C422.992 10.2893 423.474 10.3006 422.849 9.95136C422.065 9.5134 422.688 9.4841 426.006 9.80289C430.102 10.1964 431.73 10.1772 431.253 9.74137C431.012 9.52129 431.099 9.44004 431.482 9.52772C431.857 9.61318 432.091 9.45042 432.077 9.11472C432.055 8.58867 431.082 8.31035 428.493 8.09011C427.25 7.9844 427.401 7.7694 428.666 7.84306C429.974 7.91918 429.929 7.90005 428.314 7.69355C426.494 7.46069 426.507 7.45802 429.104 7.53106C430.557 7.57191 431.751 7.54031 431.757 7.46054C431.762 7.38078 431.213 7.30317 430.536 7.28829C429.169 7.25804 428.292 6.97372 429.305 6.88893C429.661 6.8591 429.789 6.75448 429.589 6.65646C429.39 6.55848 429.576 6.39905 430.002 6.30199C430.624 6.16053 430.57 6.05225 429.725 5.75236C428.716 5.39383 428.732 5.38604 430.12 5.55993C431.525 5.73578 431.532 5.73144 430.381 5.41078C429.041 5.03786 420.341 4.36068 416.249 4.31101C414.887 4.29444 413.919 4.22455 413.924 4.14323C413.938 3.95426 410.788 3.75285 409.423 3.85534ZM411.889 4.1106C411.679 4.1478 411.144 4.11566 410.7 4.0391C410.209 3.95449 410.359 3.92794 411.081 3.97142C411.735 4.01083 412.098 4.0734 411.889 4.1106ZM399.024 3.42133C399.018 3.50702 399.308 3.59799 399.669 3.62345C400.03 3.6489 400.158 3.5875 399.954 3.48695C399.749 3.38639 399.459 3.29546 399.308 3.28484C399.157 3.27421 399.03 3.33565 399.024 3.42133ZM426.145 7.52705C426.139 7.61274 425.838 7.66197 425.478 7.63652C425.117 7.61106 424.998 7.53225 425.215 7.46144C425.432 7.39063 425.732 7.34135 425.883 7.35198C426.033 7.3626 426.151 7.44137 426.145 7.52705ZM372.144 4.89424C372.785 5.13879 372.745 5.15898 371.899 5.01682C371.344 4.92331 370.894 4.78427 370.899 4.70778C370.913 4.50743 371.27 4.56096 372.144 4.89424ZM404.324 8.23564C403.916 8.46564 403.204 8.56978 402.418 8.51431C401.727 8.46558 401.159 8.47839 401.154 8.54288C401.15 8.60738 400.307 8.60366 399.282 8.53477C396.54 8.35054 398.338 8.08818 401.29 8.2418C402.535 8.3065 403.535 8.32309 403.513 8.27845C403.491 8.23386 403.7 8.08704 403.978 7.95225C404.756 7.57382 405.058 7.82122 404.324 8.23564ZM372.685 5.87936C372.682 5.92843 372.321 6.03184 371.885 6.10953C371.021 6.26292 369.554 6.10542 369.572 5.86114C369.578 5.77748 369.839 5.76777 370.153 5.8394C370.467 5.91118 370.904 5.91084 371.124 5.83889C371.55 5.69997 372.696 5.72965 372.685 5.87936ZM374.331 6.24863C374.124 6.35884 373.98 6.31155 373.963 6.12796C373.948 5.96188 374.101 5.88028 374.303 5.94653C374.505 6.01277 374.518 6.14879 374.331 6.24863ZM366.916 5.79053C366.706 5.82773 366.171 5.79559 365.727 5.71903C365.236 5.63442 365.386 5.60787 366.108 5.65135C366.762 5.69076 367.125 5.75334 366.916 5.79053ZM368.1 6.19564C367.871 6.23621 368.023 6.40132 368.437 6.56268C369.038 6.79667 369.035 6.82119 368.423 6.68427C368.002 6.58987 367.652 6.58457 367.645 6.67274C367.639 6.76076 367.149 6.75231 366.557 6.65399C365.608 6.49669 365.58 6.51444 366.324 6.80289C366.787 6.98294 366.985 7.16271 366.763 7.20242C366.539 7.24192 366.364 7.18177 366.371 7.06851C366.383 6.9121 366.122 6.90261 365.284 7.02935C364.339 7.17213 364.07 7.15678 363.398 6.92056C362.323 6.54251 361.253 6.49284 359.542 6.74126C357.958 6.97124 357.365 6.98893 357.981 6.78769C358.198 6.71687 358.08 6.63807 357.719 6.61261C357.358 6.58715 357.052 6.65368 357.039 6.76036C357.015 6.9572 355.85 6.50983 355.844 6.30201C355.842 6.19553 359.983 6.22801 361.283 6.3448C361.709 6.383 362.062 6.34371 362.068 6.25756C362.074 6.1714 362.76 6.18207 363.593 6.28107C364.542 6.3941 365.237 6.38788 365.458 6.26446C365.652 6.15633 366.069 6.12689 366.386 6.19916C366.702 6.27143 367.14 6.27153 367.361 6.19958C367.581 6.12759 367.931 6.08072 368.138 6.09537C368.345 6.10998 368.328 6.15509 368.1 6.19564ZM396.818 8.19197C396.815 8.2317 396.25 8.29998 395.562 8.34362C394.807 8.39139 394.314 8.36332 394.321 8.27311C394.326 8.19055 394.822 8.12562 395.421 8.12845C396.02 8.13142 396.581 8.1306 396.667 8.12667C396.753 8.12273 396.821 8.15209 396.818 8.19197ZM407.836 9.3167C408.28 9.39326 408.815 9.4254 409.025 9.38821C409.234 9.35101 408.871 9.28843 408.217 9.24903C407.494 9.20554 407.345 9.2321 407.836 9.3167ZM412.987 9.87232C412.554 9.90873 411.03 9.83347 409.603 9.70518C407.336 9.50153 407.2 9.50586 408.53 9.74018C409.964 9.99274 413.827 10.2276 414.52 10.1043C415.096 10.0023 413.792 9.80495 412.987 9.87232ZM363.791 6.67832C364.234 6.75488 364.77 6.78702 364.979 6.74982C365.189 6.71262 364.826 6.65005 364.172 6.61064C363.449 6.56716 363.299 6.59371 363.791 6.67832ZM355.598 6.71598C355.586 6.88501 355.135 6.88855 353.873 6.72919C352.933 6.61038 351.166 6.51222 349.947 6.51074C348.348 6.50886 347.62 6.44952 347.33 6.29711C347.109 6.18099 347.145 6.15142 347.409 6.23111C347.673 6.31097 348.767 6.34663 349.839 6.31055C350.912 6.27431 352.137 6.29886 352.56 6.36521C352.984 6.43145 353.335 6.41615 353.341 6.3314C353.347 6.24665 353.861 6.24691 354.483 6.33213C355.105 6.41724 355.607 6.59011 355.598 6.71598ZM363.011 7.02521C363.249 7.14971 363.226 7.18566 362.961 7.1054C362.695 7.02511 361.957 6.99235 361.322 7.03254C360.401 7.09091 360.244 7.06278 360.546 6.89399C361.004 6.63811 362.415 6.71308 363.011 7.02521ZM392.375 9.36202C392.369 9.44271 392.637 9.57092 392.971 9.64706C393.318 9.72635 393.426 9.67122 393.225 9.51766C392.832 9.21874 392.391 9.13799 392.375 9.36202ZM352.095 7.06388C352.064 7.11176 351.901 7.14429 351.735 7.13588C351.57 7.12763 350.26 7.14197 348.825 7.16782C346.235 7.21443 346.224 7.21302 347.355 6.98333C347.981 6.85593 348.731 6.80598 349.02 6.87212C349.31 6.93826 350.039 6.9581 350.642 6.91626C351.718 6.84158 352.21 6.89147 352.095 7.06388ZM355.462 7.26392C355.652 7.32633 355.237 7.37464 354.538 7.37125C353.734 7.36744 353.273 7.28981 353.283 7.15988C353.297 6.96172 354.752 7.03127 355.462 7.26392ZM357.627 7.38897C357.621 7.47465 357.337 7.52507 356.996 7.50101C356.655 7.47695 356.381 7.38716 356.387 7.30148C356.393 7.2158 356.677 7.16538 357.018 7.18943C357.359 7.21349 357.633 7.30328 357.627 7.38897ZM271.141 1.44261C270.924 1.51343 271.229 1.60535 271.817 1.64687C272.405 1.68838 272.71 1.75386 272.493 1.79229C271.875 1.90209 270.076 1.54449 270.519 1.39978C270.737 1.32844 271.055 1.27996 271.225 1.29199C271.396 1.30402 271.358 1.3718 271.141 1.44261ZM370.36 8.48993C370.583 8.65999 370.923 8.7709 371.117 8.73639C371.312 8.70203 371.13 8.56289 370.714 8.42719C370.112 8.2313 370.04 8.24423 370.36 8.48993ZM269.417 1.4155C269.207 1.4527 268.672 1.42055 268.228 1.34399C267.737 1.25939 267.887 1.23283 268.609 1.27632C269.263 1.31572 269.626 1.3783 269.417 1.4155ZM375.272 8.94722C375.477 9.04777 375.767 9.1387 375.918 9.14933C376.068 9.15996 376.196 9.09851 376.202 9.01283C376.208 8.92715 375.917 8.83618 375.556 8.81072C375.196 8.78526 375.067 8.84666 375.272 8.94722ZM379.809 9.21772C380.253 9.29428 380.788 9.32643 380.997 9.28923C381.207 9.25203 380.844 9.18945 380.19 9.15005C379.467 9.10656 379.318 9.13312 379.809 9.21772ZM345.584 7.11781C344.912 7.23714 343.262 7.1498 343.67 7.01655C343.868 6.95191 344.478 6.93077 345.027 6.96949C345.575 7.00816 345.825 7.07485 345.584 7.11781ZM356.237 8.00806C356.458 8.08723 356.163 8.07502 355.581 7.98087C354.999 7.88672 354.353 7.86527 354.146 7.93299C353.938 8.00072 353.071 8.00687 352.219 7.94672C351.367 7.88657 350.803 7.90315 350.967 7.9836C351.13 8.06404 350.266 8.07628 349.044 8.01092C347.823 7.94544 346.319 7.92384 345.703 7.96301C345.086 8.00198 344.097 7.99981 343.504 7.95799C342.912 7.91622 341.909 7.96211 341.276 8.05988C340.587 8.16625 340.129 8.16542 340.137 8.05777C340.144 7.95884 340.498 7.90137 340.924 7.93017C341.441 7.9649 341.393 7.91017 340.78 7.76579C340.275 7.64666 340.071 7.55398 340.327 7.56005C340.584 7.56612 341.074 7.57329 341.417 7.57585C341.759 7.57841 342.475 7.60263 343.007 7.62937C343.539 7.6561 343.831 7.6077 343.656 7.52159C343.481 7.43564 344.025 7.44692 344.864 7.54683C345.792 7.65724 346.395 7.65612 346.403 7.54395C346.41 7.43319 346.887 7.43078 347.597 7.53803C348.246 7.63633 348.969 7.65397 349.204 7.57738C349.438 7.50078 350.138 7.51494 350.759 7.60884C351.38 7.70274 352.049 7.72711 352.245 7.663C352.648 7.53112 355.622 7.78826 356.237 8.00806ZM358.795 8.49702C358.791 8.55653 358.375 8.48837 357.871 8.34557C357.367 8.20276 356.96 8.01947 356.965 7.93815C356.971 7.85683 357.387 7.92499 357.889 8.08961C358.392 8.25422 358.799 8.43751 358.795 8.49702ZM260.559 1.32214C260.342 1.39295 260.616 1.48274 261.168 1.52167C261.72 1.5606 262.004 1.51018 261.799 1.40962C261.594 1.30907 261.32 1.21928 261.19 1.21009C261.06 1.2009 260.776 1.25133 260.559 1.32214ZM252.575 1.17627C251.804 1.31319 252.123 1.50978 253.221 1.57479C253.876 1.6135 254.001 1.58593 253.534 1.50526C253.109 1.43157 252.923 1.31842 253.121 1.25366C253.54 1.11675 253.189 1.06709 252.575 1.17627ZM255.134 1.51591C255.577 1.59247 256.113 1.62461 256.322 1.58741C256.532 1.55021 256.169 1.48764 255.515 1.44823C254.792 1.40475 254.642 1.4313 255.134 1.51591ZM267.65 2.53064C268.291 2.77519 268.251 2.79538 267.406 2.65322C266.85 2.55971 266.4 2.42067 266.405 2.34418C266.419 2.14383 266.776 2.19736 267.65 2.53064ZM279.108 3.25555C279.318 3.35904 279.068 3.36767 278.52 3.27562C277.454 3.09626 277.265 2.97069 278.156 3.03359C278.478 3.05625 278.905 3.15611 279.108 3.25555ZM263.487 2.25584C263.078 2.26875 262.888 2.39066 263.068 2.52698C263.247 2.66316 263.114 2.75496 262.773 2.7309C262.433 2.70684 262.007 2.57567 261.828 2.4395C261.517 2.20275 262.284 2.09488 263.613 2.18862C263.954 2.21267 263.898 2.24283 263.487 2.25584ZM359.067 9.0562C358.843 9.12934 358.422 9.13486 358.132 9.06848C357.841 9.0021 357.423 9.00676 357.203 9.07871C356.743 9.22897 357.874 9.31742 359.634 9.26874C360.405 9.2474 360.594 9.17914 360.157 9.07929C359.782 8.99343 359.291 8.98307 359.067 9.0562ZM260.987 2.54689C261.042 2.60919 260.602 2.64403 260.008 2.62406C259.087 2.5932 259.037 2.54602 259.668 2.3023C260.338 2.04376 260.579 2.08852 260.987 2.54689ZM337.474 8.07062C336.368 8.0732 335.231 8.15236 334.948 8.24666C334.525 8.38758 334.276 8.36672 333.555 8.13032C332.368 7.74159 332.459 7.59207 333.75 7.80921C334.332 7.9071 334.587 7.91491 334.316 7.82674C334.044 7.73837 334.899 7.66437 336.215 7.66204C337.961 7.65893 338.726 7.71291 339.047 7.86186C339.32 7.98854 338.724 8.06765 337.474 8.07062ZM258.102 2.30808C258.093 2.43286 257.711 2.46387 257.213 2.38003C256.495 2.25939 256.489 2.22041 257.177 2.16001C257.637 2.11967 258.037 2.08729 258.065 2.08786C258.094 2.08863 258.11 2.18765 258.102 2.30808ZM349.017 8.74876C349.007 8.88897 349.361 8.97641 349.883 8.96286C350.37 8.95036 351.209 8.9714 351.749 9.0095C353.066 9.10245 352.579 8.97712 350.629 8.72112C349.446 8.56595 349.029 8.57303 349.017 8.74876ZM343.588 8.85666C343.345 8.89991 342.157 8.84883 340.95 8.74297C339.367 8.60437 338.88 8.61222 339.203 8.77125C339.506 8.92042 339.337 8.93883 338.679 8.8282C338.136 8.737 337.557 8.74673 337.373 8.85017C337.19 8.95234 336.039 9.04833 334.814 9.06337C333.59 9.07846 332.584 9.14759 332.579 9.21707C332.568 9.37644 340.276 9.44614 340.57 9.28934C340.69 9.22562 341.042 9.23152 341.352 9.30242C341.663 9.37336 342.092 9.33411 342.305 9.21499C342.519 9.09587 342.911 9.04823 343.177 9.10917C343.444 9.1701 343.829 9.12634 344.034 9.01211C344.437 8.78663 344.284 8.73308 343.588 8.85666ZM239.932 1.91273C239.731 1.97867 239.234 2.00356 238.828 1.96821C238.301 1.92222 238.314 1.89699 238.875 1.87992C239.306 1.86668 239.48 1.76795 239.262 1.66047C239.025 1.54399 239.154 1.5312 239.582 1.62903C239.977 1.7192 240.134 1.84683 239.932 1.91273ZM231.473 2.98244C231.47 3.02528 231.052 2.99046 230.544 2.90499C230.037 2.81967 229.617 2.8023 229.613 2.86664C229.608 2.93098 228.906 2.94891 228.052 2.90653C227.199 2.86398 226.506 2.75588 226.512 2.66615C226.518 2.57626 226.73 2.548 226.984 2.6033C227.237 2.65845 228.005 2.69137 228.692 2.67639C229.901 2.64998 231.485 2.82416 231.473 2.98244ZM295.327 7.42191C294.468 7.46069 293.554 7.54999 293.298 7.62033C293.041 7.69084 292.831 7.68684 292.831 7.61183C292.831 7.5367 292.419 7.53127 291.915 7.59983C291.412 7.66823 290.711 7.65859 290.36 7.57818C290.008 7.49777 289.714 7.51039 289.707 7.6062C289.7 7.70201 289.401 7.7131 289.041 7.63103C288.681 7.54885 288.049 7.56186 287.637 7.65989C286.843 7.84873 280.954 7.97876 280.464 7.81834C280.306 7.76631 280.567 7.7154 281.045 7.70498C281.523 7.69471 283.038 7.6577 284.411 7.62276C286.748 7.56333 286.778 7.55516 284.887 7.49402C283.776 7.45818 282.872 7.37811 282.877 7.316C282.891 7.16541 293.372 7.10325 295.34 7.24213L296.889 7.35134L295.327 7.42191ZM225.249 2.90068C225.244 2.97592 224.697 2.98897 224.033 2.92946C223.126 2.84824 222.994 2.78331 223.499 2.66835C224.188 2.51186 225.267 2.655 225.249 2.90068ZM225.053 3.29496C224.843 3.33216 224.308 3.30002 223.864 3.22346C223.373 3.13885 223.523 3.1123 224.245 3.15578C224.899 3.19519 225.262 3.25776 225.053 3.29496ZM282.253 7.30577C282.25 7.34363 281.966 7.3981 281.621 7.42701C281.276 7.45592 281 7.40523 281.006 7.31456C281.012 7.2239 281.297 7.16927 281.638 7.19333C281.979 7.21739 282.255 7.26792 282.253 7.30577ZM215.247 3.21674C214.806 3.31685 214.288 3.34695 214.094 3.28346C213.9 3.22 214.157 3.13181 214.664 3.08743C215.991 2.97144 216.161 3.0091 215.247 3.21674ZM272.673 7.4209C272.86 7.56279 273.264 7.65771 273.573 7.63176C274.458 7.55768 274.247 7.29808 273.244 7.22731C272.691 7.18829 272.467 7.26438 272.673 7.4209ZM274.764 7.4819C274.759 7.5626 275.027 7.69081 275.36 7.76695C275.708 7.84623 275.816 7.79111 275.614 7.63754C275.221 7.33863 274.78 7.25788 274.764 7.4819ZM207.353 3.04737C207.163 3.20614 206.744 3.31753 206.423 3.29482C206.102 3.27216 206.016 3.19567 206.233 3.12486C206.846 2.92465 205.846 2.91349 205.056 3.11151C204.669 3.20868 203.653 3.26768 202.798 3.24243C201.943 3.21734 201.598 3.19157 202.031 3.18516C202.464 3.1786 202.661 3.09591 202.468 3.00137C202.275 2.90683 201.785 2.8536 201.379 2.88317C200.972 2.91269 200.861 2.89219 201.132 2.83769C201.808 2.70129 203.545 2.77172 203.099 2.91749C202.901 2.98214 203.191 3.06675 203.742 3.10568C204.294 3.14461 204.592 3.10116 204.405 3.00919C204.218 2.91723 204.838 2.82576 205.784 2.80577C206.73 2.78593 207.548 2.76705 207.601 2.76412C207.655 2.76118 207.543 2.88856 207.353 3.04737ZM209.362 3.22682C208.782 3.26701 208.145 3.24684 207.947 3.18194C207.749 3.11694 207.929 3.08797 208.346 3.11745C208.764 3.14694 208.941 3.08973 208.739 2.99028C208.522 2.88422 208.792 2.88057 209.394 2.98157C210.343 3.14125 210.341 3.15877 209.362 3.22682ZM212.922 3.23087C212.493 3.24413 211.796 3.19492 211.373 3.12151C210.95 3.04831 211.301 3.03752 212.153 3.09767C213.005 3.15782 213.352 3.21781 212.922 3.23087ZM270.804 7.44648C270.991 7.58888 271.254 7.71311 271.388 7.72255C271.522 7.732 271.639 7.63459 271.648 7.50606C271.657 7.37754 271.394 7.25331 271.064 7.22999C270.734 7.20672 270.617 7.30414 270.804 7.44648ZM264.333 7.43577C263.219 7.43825 262.303 7.50501 262.298 7.58399C262.287 7.73495 263.831 7.75432 266.966 7.6424C269.192 7.56306 267.48 7.42864 264.333 7.43577ZM199.696 3.05503C200.132 3.2212 200.185 3.32436 199.822 3.29873C199.476 3.27432 199.04 3.13785 198.852 2.99545C198.665 2.85311 198.609 2.74344 198.727 2.75175C198.844 2.76007 199.281 2.89654 199.696 3.05503ZM193.199 2.82055C192.996 2.88644 193.116 3.00544 193.465 3.08497C193.813 3.16449 193.93 3.28436 193.724 3.35144C193.149 3.53944 192.291 3.2694 192.546 2.98035C192.847 2.63792 192.824 2.64834 193.219 2.67621C193.409 2.68964 193.4 2.75461 193.199 2.82055ZM198.296 3.2205C198.154 3.31269 197.704 3.39243 197.297 3.39782C196.841 3.40386 196.708 3.32275 196.95 3.18749C197.402 2.9348 198.688 2.96633 198.296 3.2205ZM195.614 3.14754C195.805 3.24117 195.674 3.34167 195.323 3.37112C194.973 3.40042 194.694 3.31515 194.704 3.18164C194.723 2.90792 195.098 2.89398 195.614 3.14754ZM167.114 1.30379C166.897 1.37459 166.441 1.41286 166.1 1.3888C165.759 1.36474 165.657 1.28711 165.874 1.2163C166.091 1.14549 166.547 1.10723 166.888 1.13129C167.229 1.15534 167.33 1.23297 167.114 1.30379ZM189.415 3.38493C188.232 3.46707 187.511 3.31726 188.125 3.11678C188.347 3.04445 188.965 3.05865 189.499 3.14845C190.366 3.29421 190.357 3.31959 189.415 3.38493ZM273.092 9.1113C272.064 9.11873 270.736 9.06088 270.141 8.98246C269.546 8.90415 269.212 8.91466 269.398 9.00576C269.583 9.09697 269.439 9.15069 269.078 9.12523C268.718 9.09977 268.417 9.14418 268.412 9.22379C268.4 9.38628 270.649 9.40516 274.015 9.27085C276.449 9.1739 275.965 9.09033 273.092 9.1113ZM162.789 1.44938C162.421 1.56949 159.929 1.59806 159.937 1.48216C159.939 1.44461 160.574 1.39483 161.346 1.37136C163.178 1.31602 163.195 1.31689 162.789 1.44938ZM187.215 3.36525C187.208 3.46013 186.821 3.47351 186.354 3.39502C185.888 3.31653 185.173 3.31149 184.767 3.38365C184.36 3.45592 183.832 3.50726 183.592 3.49774C183.353 3.48838 182.736 3.49227 182.221 3.50651C180.974 3.54109 176.726 3.56885 175.795 3.54859C175.388 3.53976 173.532 3.54276 171.669 3.55538C167.678 3.58247 167.887 3.59125 167.901 3.39464C167.907 3.30896 168.435 3.27582 169.076 3.321C169.716 3.36619 171.21 3.37002 172.397 3.32944C173.583 3.28886 175.37 3.27982 176.368 3.30937C177.366 3.33891 178.252 3.36215 178.338 3.36117C178.424 3.3602 178.703 3.36815 178.96 3.3789C179.216 3.38964 179.82 3.3443 180.304 3.27804C182.608 2.96187 187.239 3.02034 187.215 3.36525ZM159.099 1.59241C159.09 1.7172 158.848 1.76572 158.561 1.70027C158.275 1.63481 158.205 1.52735 158.408 1.46145C158.923 1.29303 159.117 1.32975 159.099 1.59241ZM261.625 9.15574C258.327 9.2818 259.626 9.41717 263.753 9.37745C266.623 9.34979 267.046 9.3112 265.609 9.20813C264.587 9.13471 262.794 9.11119 261.625 9.15574ZM205.149 5.24028C204.632 5.28723 203.93 5.30594 203.589 5.28188C203.248 5.25782 203.392 5.19974 203.909 5.15279C204.427 5.10585 205.129 5.08713 205.47 5.11119C205.811 5.13525 205.666 5.19333 205.149 5.24028ZM246.584 8.425C245.801 8.60488 245.884 8.62579 247.428 8.63811C248.37 8.64556 249.136 8.70824 249.131 8.77725C249.117 8.9723 246.482 8.78919 245.566 8.52927C244.897 8.33992 244.895 8.28359 245.558 8.22549C246.933 8.10456 247.5 8.21485 246.584 8.425ZM258.128 9.29188C257.911 9.36269 258.029 9.4415 258.39 9.46695C258.751 9.49241 259.052 9.44317 259.058 9.35749C259.064 9.27181 258.946 9.19304 258.795 9.18242C258.645 9.17178 258.345 9.22107 258.128 9.29188ZM245.678 8.87524C245.873 8.97069 245.391 9.0815 244.608 9.12141C243.301 9.188 243.277 9.18173 244.317 9.04626C245.169 8.93541 245.251 8.86419 244.649 8.7603C244.105 8.66652 244.085 8.63473 244.586 8.66177C244.992 8.68372 245.484 8.77963 245.678 8.87524ZM167.271 3.49438C167.261 3.63256 163.778 3.65012 163.326 3.51426C163.204 3.47767 162.566 3.51531 161.908 3.59804C160.799 3.73753 160.776 3.7328 161.594 3.533C162.079 3.41441 162.594 3.35587 162.737 3.40292C162.881 3.44985 163.752 3.44308 164.675 3.38776C166.637 3.27007 167.284 3.29668 167.271 3.49438ZM242.881 9.06782C242.878 9.10567 242.594 9.16014 242.249 9.18905C241.904 9.21796 241.628 9.16728 241.634 9.07661C241.64 8.98594 241.925 8.93131 242.266 8.95537C242.607 8.97943 242.883 9.02996 242.881 9.06782ZM239.454 9.0701C239.237 9.14092 238.589 9.16058 238.013 9.11398C237.158 9.04463 237.196 9.02052 238.214 8.98262C239.886 8.92052 239.907 8.92205 239.454 9.0701ZM136.067 1.86914C135.858 1.90634 135.323 1.8742 134.879 1.79764C134.388 1.71304 134.537 1.68648 135.26 1.72996C135.914 1.76937 136.277 1.83195 136.067 1.86914ZM139.303 2.55087C139.294 2.6794 139.016 2.76548 138.686 2.74217C138.356 2.7189 138.254 2.606 138.459 2.4913C138.664 2.37664 138.942 2.29055 139.076 2.3C139.21 2.30945 139.312 2.42235 139.303 2.55087ZM141.795 2.55339C141.792 2.58704 141.355 2.62583 140.822 2.63958C140.266 2.65377 140.02 2.61005 140.243 2.53719C140.617 2.41471 141.804 2.4272 141.795 2.55339ZM211.222 7.46008C211.22 7.49794 210.935 7.55241 210.591 7.58131C210.246 7.61022 209.969 7.55954 209.976 7.46887C209.982 7.3782 210.266 7.32357 210.607 7.34763C210.948 7.37169 211.225 7.42222 211.222 7.46008ZM190.063 6.66761C188.879 6.72009 187.7 6.8188 187.443 6.88696C187.187 6.95513 186.977 6.95565 186.976 6.88796C186.976 6.82031 186.418 6.80023 185.738 6.84335C184.741 6.9064 184.571 6.88202 184.864 6.71843C185.064 6.6067 186.021 6.52736 186.991 6.54223C187.96 6.55711 188.906 6.48404 189.092 6.38006C189.307 6.26025 189.942 6.26079 190.824 6.3814C192.124 6.55941 192.074 6.57854 190.063 6.66761ZM233.499 9.59846C233.492 9.68913 233.769 9.73982 234.114 9.71091C234.458 9.682 234.742 9.62753 234.745 9.58967C234.748 9.55182 234.471 9.50129 234.13 9.47723C233.789 9.45317 233.505 9.5078 233.499 9.59846ZM112.887 1.69585C111.512 1.76179 110.685 1.84264 111.049 1.87526C111.415 1.90807 112.819 1.8747 114.17 1.80124C117.323 1.62988 116.195 1.53729 112.887 1.69585ZM221.056 9.35283C216.802 9.43151 214.683 9.38499 215.178 9.22342C215.384 9.15596 215.81 9.15924 216.124 9.23102C216.438 9.30264 216.699 9.30057 216.704 9.22626C216.71 9.15194 217.905 9.1018 219.36 9.11461C223.764 9.15375 224.702 9.28536 221.056 9.35283ZM103.909 1.37906C103.401 1.42152 103.698 1.48658 104.731 1.5595C106.535 1.68679 106.753 1.65721 105.527 1.4513C105.074 1.37497 104.345 1.34236 103.909 1.37906ZM214.204 9.34977C214.199 9.42113 213.62 9.43899 212.918 9.38948C212.216 9.33996 211.79 9.25114 211.97 9.19217C212.151 9.13304 212.73 9.11517 213.256 9.15231C213.782 9.18945 214.209 9.27827 214.204 9.34977ZM190.938 7.99497C189.221 8.05871 188.242 7.98964 189.388 7.88562C189.905 7.83867 190.747 7.83354 191.258 7.87445C191.87 7.92332 191.762 7.96434 190.938 7.99497ZM166.721 6.43154C166.391 6.48831 165.282 6.51881 164.255 6.49913L162.389 6.46356L164.264 6.36702C166.483 6.25302 167.589 6.28208 166.721 6.43154ZM119.303 3.47125C119.3 3.5049 118.863 3.54369 118.33 3.55743C117.774 3.57163 117.528 3.52791 117.751 3.45505C118.125 3.33257 119.312 3.34506 119.303 3.47125ZM123.198 3.94198C122.788 3.95488 122.616 4.08959 122.816 4.24143C123.046 4.41677 122.933 4.46122 122.504 4.36329C122.133 4.27857 121.646 4.26893 121.422 4.34206C121.198 4.4152 120.777 4.42072 120.486 4.35434C120.196 4.28796 119.778 4.29262 119.557 4.36457C119.337 4.43656 118.672 4.46113 118.078 4.41922C117.484 4.37731 116.643 4.40614 116.21 4.48312C115.776 4.56021 115.226 4.61392 114.987 4.60268C114.748 4.5913 113.43 4.58602 112.06 4.59089C108.991 4.60182 108.634 4.57884 108.649 4.37087C108.655 4.2802 108.913 4.26364 109.222 4.33413C109.899 4.48883 118.769 4.24319 118.281 4.08316C118.093 4.02151 118.305 4.00098 118.754 4.03763C120.716 4.19766 121.791 4.20108 121.476 4.04605C121.139 3.88092 122.121 3.78989 123.324 3.87476C123.665 3.89881 123.608 3.92897 123.198 3.94198ZM184.274 9.72589C184.268 9.81656 184.545 9.86725 184.889 9.83834C185.234 9.80943 185.518 9.75496 185.521 9.7171C185.523 9.67924 185.247 9.62871 184.906 9.60466C184.565 9.5806 184.281 9.63523 184.274 9.72589ZM98.1054 3.69906C98.103 3.73349 97.259 3.77601 96.2298 3.79341C94.0637 3.83015 93.6831 3.69621 95.7739 3.63301C97.3553 3.58522 98.112 3.60667 98.1054 3.69906ZM182.514 9.84732C182.115 9.99361 181.798 9.99596 181.511 9.85483C180.83 9.52011 180.016 9.54755 180.33 9.89472C180.584 10.1763 180.855 10.2109 182.571 10.1819C183.644 10.1638 184.181 10.0959 183.765 10.0313C183.348 9.96664 183.169 9.86071 183.368 9.79595C183.566 9.73119 183.586 9.6681 183.413 9.65586C183.239 9.64361 182.834 9.7298 182.514 9.84732ZM160.703 8.27896C160.7 8.31682 160.416 8.37129 160.072 8.4002C159.727 8.4291 159.45 8.37842 159.457 8.28775C159.463 8.19708 159.747 8.14246 160.088 8.16651C160.429 8.19057 160.706 8.2411 160.703 8.27896ZM178.647 9.88054C178.624 10.107 178.492 10.1187 178.099 9.92951C177.737 9.75589 177.448 9.72378 177.144 9.82303C176.904 9.90145 176.934 9.98336 177.209 10.005C177.485 10.0268 176.585 10.1047 175.209 10.1781C173.022 10.2949 172.942 10.3159 174.574 10.3443C175.601 10.3625 176.79 10.3988 177.216 10.4254C177.643 10.4519 177.996 10.4078 178.002 10.3271C178.008 10.2466 178.409 10.2473 178.893 10.3288C179.523 10.4346 179.71 10.3794 179.55 10.1359C179.244 9.6723 178.685 9.51418 178.647 9.88054ZM90.6045 4.05543C90.5981 4.1461 90.317 4.15742 89.9798 4.08039C89.6426 4.00337 89.3626 3.99926 89.3575 4.07124C89.3459 4.23512 85.7976 4.33042 85.336 4.17918C85.1491 4.11777 86.0507 4.01872 87.3401 3.95878C90.1671 3.82761 90.6197 3.84107 90.6045 4.05543ZM92.686 4.88399C89.5339 5.00568 87.5419 4.94904 90.2395 4.81453C91.6149 4.74594 93.1588 4.71695 93.6704 4.74993C94.1821 4.78305 93.7392 4.84339 92.686 4.88399ZM127.755 7.29397C127.749 7.37965 127.621 7.4411 127.47 7.43047C127.32 7.41984 127.03 7.32891 126.825 7.22836C126.62 7.1278 126.749 7.0664 127.109 7.09186C127.47 7.11732 127.761 7.20829 127.755 7.29397ZM84.9772 4.34659C84.9687 4.46686 83.1171 4.43327 82.8624 4.30836C82.7095 4.23307 83.123 4.19931 83.7822 4.2333C84.4414 4.2673 84.9792 4.31824 84.9772 4.34659ZM125.552 7.60823C125.335 7.67904 124.826 7.71245 124.42 7.68255C123.976 7.64968 124.057 7.59388 124.622 7.54262C125.827 7.43316 126.041 7.4483 125.552 7.60823ZM85.5521 5.02844C85.5451 5.12659 81.4634 5.28586 80.7306 5.21662C80.4645 5.19142 81.3717 5.11969 82.7466 5.05733C85.7509 4.92098 85.5595 4.92297 85.5521 5.02844ZM123.367 7.67215C123.365 7.7058 122.942 7.74419 122.427 7.75749C121.912 7.77063 121.495 7.71353 121.501 7.63065C121.507 7.54762 121.93 7.50922 122.442 7.54531C122.953 7.58139 123.37 7.6385 123.367 7.67215ZM117.982 7.61699C118.165 7.75627 118.104 7.88802 117.846 7.90972C117.588 7.93127 117.346 7.81086 117.308 7.64192C117.226 7.2765 117.52 7.26564 117.982 7.61699ZM79.9354 5.16802C79.9235 5.33689 76.2095 5.59821 75.7876 5.45993C75.6402 5.4118 76.372 5.34398 77.4136 5.3093C78.4551 5.27477 79.3113 5.18472 79.3166 5.10947C79.3219 5.03407 79.4657 4.98238 79.6362 4.99441C79.8066 5.00644 79.9413 5.08452 79.9354 5.16802ZM93.6247 6.49301C93.0015 6.60246 92.9321 6.57956 93.2837 6.38127C93.5276 6.24411 93.8802 6.1821 94.0678 6.24356C94.2553 6.30485 94.0562 6.41715 93.6247 6.49301ZM74.6111 5.57919C74.3943 5.65 73.8848 5.68341 73.4789 5.65351C73.0351 5.62064 73.1163 5.56483 73.6812 5.51358C74.8857 5.40412 75.1002 5.41925 74.6111 5.57919ZM76.7642 5.96597C76.7551 6.0945 76.5396 6.17385 76.2845 6.14208C75.5583 6.05185 73.3724 6.15577 72.856 6.30502C72.5743 6.38643 72.3931 6.33169 72.3985 6.16721C72.4063 5.95061 74.2562 5.76097 76.6248 5.73413C76.7102 5.73311 76.7733 5.83745 76.7642 5.96597ZM85.444 6.55937C85.4418 6.59162 84.9446 6.67991 84.34 6.75545C83.3432 6.87972 83.3219 6.87273 84.1098 6.68002C84.9383 6.47766 85.4531 6.43116 85.444 6.55937ZM94.7191 7.5461C92.6608 7.69504 91.6539 7.62727 93.2056 7.4443C93.8759 7.3651 94.8433 7.33019 95.3547 7.36659C95.894 7.40496 95.627 7.48037 94.7191 7.5461ZM140.671 11.1545C139.146 11.3392 133.751 11.3841 133.239 11.2163C133.077 11.1633 133.748 11.1281 134.73 11.1384C135.712 11.1485 136.869 11.1124 137.301 11.0582C137.733 11.0038 138.084 10.999 138.081 11.0471C138.077 11.0954 138.849 11.0885 139.795 11.0317C142.11 10.8928 142.445 10.9396 140.671 11.1545ZM88.7415 7.81238C88.9251 7.90253 88.6694 7.98656 88.1739 7.99919C87.5728 8.0147 87.3932 7.95538 87.6339 7.82096C88.0522 7.58745 88.2803 7.5857 88.7415 7.81238ZM71.7937 6.90688C72.5468 7.20833 72.5247 7.21225 71.5552 6.94923C70.7985 6.74381 70.4817 6.71269 70.4725 6.84293C70.4654 6.94403 70.1542 6.95715 69.7809 6.87193C69.3082 6.7639 69.3598 6.69442 69.9528 6.64233C70.4204 6.60127 70.8388 6.56927 70.883 6.57097C70.9264 6.57279 71.3363 6.72383 71.7937 6.90688ZM75.1061 7.01239C75.297 7.10602 75.2129 7.20264 74.9203 7.22724C74.6276 7.25183 74.3948 7.1698 74.4036 7.04502C74.4221 6.78236 74.6196 6.77328 75.1061 7.01239ZM67.7464 7.05434C67.1882 7.11671 66.9095 7.22621 67.1274 7.29764C67.5354 7.43132 66.407 7.40821 64.9303 7.25266C64.4708 7.20426 64.2562 7.24376 64.4531 7.34048C65.1046 7.66059 63.0527 7.56841 62.2355 7.24082C61.5242 6.95563 61.5482 6.95044 62.4523 7.19538C63.3234 7.43126 63.5336 7.42793 63.908 7.17238C64.2798 6.91821 64.4919 6.91439 65.3246 7.14662C66.1671 7.38143 66.2485 7.37621 65.9054 7.10948C65.6656 6.92316 65.7483 6.85447 66.1119 6.93758C66.4454 7.01372 66.7226 7.0134 66.728 6.93707C66.7334 6.86058 67.1935 6.8301 67.7495 6.86934C68.68 6.93499 68.6802 6.94988 67.7464 7.05434ZM88.9906 8.67932C88.0083 8.80915 82.1545 9.03391 82.161 8.94153C82.1655 8.87891 83.5654 8.76242 85.2718 8.68258C87.0644 8.59882 88.2196 8.4541 88.0078 8.34005C87.8061 8.23141 88.0063 8.25524 88.4526 8.39289C88.8983 8.53064 89.1409 8.65939 88.9906 8.67932ZM103.795 9.7285C104.663 9.72027 104.687 9.73526 103.934 9.81518C103.432 9.86825 102.802 9.86153 102.533 9.80011C102.264 9.73869 102.039 9.75928 102.033 9.84606C102.026 9.93283 102.71 10.0381 103.554 10.08C104.396 10.122 105.019 10.2222 104.94 10.3026C104.78 10.4627 104.396 10.4357 101.86 10.0867C100.555 9.90727 100.159 9.90816 100.146 10.0909C100.137 10.2216 100.476 10.3913 100.898 10.4679C101.322 10.5446 100.861 10.5355 99.8751 10.4478C98.8059 10.3528 97.9551 10.3673 97.7669 10.4836C97.5512 10.617 97.7252 10.6592 98.315 10.6167C99.0257 10.5657 99.0338 10.5832 98.363 10.7145C97.6681 10.8507 97.4667 10.8349 97.0049 10.6077C96.3667 10.2942 97.3573 10.0024 98.7309 10.0994C99.2944 10.1391 99.5196 10.0639 99.3109 9.90545C99.0053 9.67267 99.635 9.62114 100.965 9.77027C101.23 9.79989 101.637 9.71734 101.871 9.58665C102.114 9.45116 102.392 9.43277 102.52 9.54383C102.643 9.65101 103.217 9.73407 103.795 9.7285ZM127.766 11.5525C127.077 11.6016 126.303 11.7034 126.046 11.7787C125.723 11.8733 125.58 11.8578 125.582 11.728C125.586 11.533 127.318 11.3434 128.398 11.4196C128.739 11.4436 128.454 11.5034 127.766 11.5525ZM61.6221 7.53682C62.1799 7.53437 61.8401 7.59149 60.8662 7.66368C58.4407 7.84339 56.9076 7.79109 56.926 7.52921C56.9367 7.37794 57.1637 7.37501 57.6749 7.51974C58.3895 7.72219 60.1022 7.53493 59.6299 7.30621C59.5185 7.25247 59.6932 7.28343 60.0176 7.3749C60.3419 7.46636 61.0638 7.53922 61.6221 7.53682ZM97.0459 9.88543C97.0435 9.91908 96.606 9.95787 96.073 9.97161C95.5175 9.98581 95.2708 9.94209 95.494 9.86923C95.8683 9.74675 97.0548 9.75924 97.0459 9.88543ZM81.221 9.02033C81.0042 9.09114 80.4947 9.12455 80.0888 9.09465C79.6451 9.06178 79.7263 9.00598 80.2912 8.95472C81.4956 8.84526 81.7101 8.8604 81.221 9.02033ZM113.324 11.5387C113.019 11.7096 112.837 11.7047 112.452 11.5157C112.075 11.3305 111.87 11.3306 111.538 11.5163C111.302 11.6479 110.812 11.7347 110.448 11.709C110.084 11.6833 110.445 11.5349 111.251 11.3791C112.793 11.0812 113.98 11.1726 113.324 11.5387ZM81.012 9.38635C81.4579 9.35425 81.2546 9.42757 80.5607 9.54958C79.2732 9.77577 77.742 9.76666 77.7585 9.53267C77.7635 9.46132 78.2028 9.43361 78.734 9.47109C79.2653 9.50858 79.5403 9.46067 79.3446 9.36451C79.1489 9.26835 78.5069 9.19438 77.9177 9.20025C77.0306 9.20905 77.0049 9.19423 77.7669 9.11351C78.3983 9.0466 78.9252 9.08347 79.445 9.23053C79.8616 9.34854 80.5668 9.41866 81.012 9.38635ZM40.5504 6.98159C40.5505 7.05127 40.2749 7.04529 39.9377 6.96826C39.6005 6.89124 39.3186 6.91424 39.3112 7.01924C39.3037 7.12424 39.1717 7.16877 39.0176 7.11829C38.8629 7.06777 38.9156 6.87766 39.1334 6.69576C39.4306 6.44822 39.6582 6.42671 40.0396 6.60988C40.3204 6.74461 40.5497 6.91187 40.5504 6.98159ZM76.7696 9.26233C76.9712 9.4159 76.8626 9.47102 76.5156 9.39174C76.1821 9.3156 75.9005 9.37667 75.8899 9.52732C75.8757 9.72906 75.6916 9.74269 75.1904 9.57847C74.6893 9.41426 74.7379 9.30794 75.3747 9.1747C76.449 8.94991 76.3504 8.94373 76.7696 9.26233ZM38.2926 6.65647C38.0148 6.74458 37.7786 6.87853 37.7676 6.95432C37.7573 7.02999 36.9791 7.05836 36.0382 7.01733C34.2166 6.93779 34.5858 6.79961 37.1873 6.58771C38.7826 6.45777 38.898 6.46497 38.2926 6.65647ZM88.6047 10.3242C88.3879 10.395 87.8785 10.4284 87.4725 10.3985C87.0288 10.3656 87.11 10.3098 87.6749 10.2586C88.8794 10.1491 89.0939 10.1643 88.6047 10.3242ZM96.1305 11.0904C95.5653 11.1534 95.3043 11.2765 95.5499 11.3637C95.7948 11.4508 95.6744 11.4526 95.2811 11.3674C94.8884 11.2822 94.4461 11.2908 94.2992 11.3864C94.1517 11.482 93.8853 11.3984 93.7061 11.2007C93.4571 10.9246 93.603 10.8785 94.3363 11.0018C94.96 11.1066 95.1419 11.0889 94.8601 10.9505C94.5699 10.8079 94.7738 10.7968 95.4855 10.9164C96.2588 11.0465 96.4101 11.0292 96.0495 10.8519C95.7009 10.6807 95.7912 10.6635 96.3571 10.7926C96.9928 10.9379 96.9461 10.9992 96.1305 11.0904ZM74.022 9.51324C74.0196 9.54689 73.5964 9.58529 73.0815 9.59859C72.5666 9.61173 72.1501 9.55463 72.156 9.47175C72.1618 9.38871 72.585 9.35031 73.0965 9.3864C73.6079 9.42249 74.0243 9.47959 74.022 9.51324ZM93.1853 11.3519C93.1792 11.4376 92.9114 11.3835 92.5901 11.2317C92.2687 11.0798 92.0108 10.8855 92.0169 10.7998C92.0229 10.7141 92.2907 10.7683 92.6121 10.9201C92.9334 11.0719 93.1913 11.2663 93.1853 11.3519ZM89.8916 10.963C90.079 11.1054 90.4975 11.2406 90.8223 11.2635C91.1471 11.2864 91.2192 11.2101 90.9832 11.094C90.7164 10.9632 90.8224 10.9444 91.2607 11.0447C91.6501 11.1336 91.965 11.261 91.9603 11.328C91.9476 11.5085 88.6782 11.6403 87.4308 11.5105C86.8359 11.4484 86.3443 11.4582 86.3391 11.5321C86.3267 11.707 81.9865 11.7948 81.4847 11.6304C81.2728 11.5611 81.7183 11.5074 82.4744 11.5111C83.2298 11.5146 83.8526 11.4557 83.8579 11.38C83.8632 11.3044 84.4088 11.2806 85.0708 11.3273C85.7329 11.374 86.4666 11.3493 86.7025 11.2723C86.9379 11.1953 87.6549 11.2041 88.2954 11.2917C89.1358 11.4067 89.4655 11.3685 89.4807 11.1541C89.5048 10.8112 89.295 10.7828 87.4344 10.8765C86.1153 10.9429 86.1105 10.9399 87.2893 10.7879C88.8189 10.5907 89.4588 10.6339 89.8916 10.963ZM106.859 12.082C106.853 12.1677 106.552 12.2169 106.191 12.1914C105.83 12.166 105.712 12.0872 105.929 12.0164C106.146 11.9455 106.446 11.8963 106.596 11.9069C106.747 11.9175 106.865 11.9963 106.859 12.082ZM34.54 7.37832C34.7416 7.53189 34.633 7.58702 34.286 7.50773C33.9525 7.43159 33.6843 7.30338 33.69 7.22268C33.7058 6.99866 34.1468 7.07941 34.54 7.37832ZM27.7894 6.97211C27.5726 7.04292 27.1163 7.08118 26.7754 7.05712C26.4344 7.03306 26.3328 6.95543 26.5496 6.88462C26.7664 6.81381 27.2226 6.77555 27.5636 6.79961C27.9045 6.82367 28.0062 6.9013 27.7894 6.97211ZM32.3978 7.87847C31.5769 7.96411 30.3672 8.12956 29.7098 8.24631C29.0531 8.36295 28.3572 8.40669 28.1636 8.34324C27.6844 8.18621 29.9225 7.74888 30.8653 7.81542C31.2819 7.84481 31.9831 7.78689 32.4237 7.68678C32.8644 7.58668 33.3745 7.55378 33.5577 7.61384C33.741 7.6739 33.2193 7.79302 32.3978 7.87847ZM72.9431 10.7828C72.5324 10.8557 72.2937 10.7775 72.2435 10.5535C72.1862 10.2974 72.3395 10.27 72.8668 10.4428C73.3277 10.5939 73.3538 10.7098 72.9431 10.7828ZM70.5923 11.0338C70.5815 11.1871 70.372 11.1808 69.7631 11.0083C69.3154 10.8814 68.95 10.7628 68.9512 10.7447C68.9525 10.7266 69.3255 10.7381 69.7799 10.7701C70.2349 10.8022 70.6003 10.9209 70.5923 11.0338ZM67.3745 11.018C67.5792 11.1185 67.4509 11.1799 67.0901 11.1545C66.7294 11.129 66.4386 11.038 66.4447 10.9523C66.4507 10.8667 66.5784 10.8052 66.7291 10.8158C66.8797 10.8265 67.1698 10.9174 67.3745 11.018ZM88.6379 13.0053C87.2858 13.1238 86.6331 13.0247 87.4878 12.8304C87.9184 12.7326 88.5444 12.715 88.8792 12.7916C89.2495 12.8761 89.1545 12.9599 88.6379 13.0053ZM62.4192 11.2756C62.0513 11.3957 59.5586 11.4243 59.5668 11.3084C59.5694 11.2708 60.2034 11.221 60.9763 11.1976C62.808 11.1422 62.8248 11.1431 62.4192 11.2756ZM58.9357 11.4234C58.9333 11.457 58.4957 11.4958 57.9628 11.5096C57.4073 11.5238 57.1606 11.48 57.3837 11.4072C57.7581 11.2847 58.9446 11.2972 58.9357 11.4234ZM40.9711 10.6349C41.2825 10.6089 41.3787 10.6758 41.1861 10.7837C40.7794 11.0108 37.9322 11.2256 37.4451 11.0659C37.2643 11.0067 37.7676 10.8224 38.5636 10.6564C39.359 10.4903 40.0991 10.4283 40.2074 10.5184C40.3163 10.6086 40.6596 10.661 40.9711 10.6349ZM58.7268 11.9734C57.8481 12.0836 56.6153 12.1364 55.9868 12.0908C55.0521 12.0228 55.01 11.9934 55.7553 11.9282C56.2561 11.8843 56.8549 11.8917 57.0854 11.9444C57.3159 11.9972 57.8568 11.9602 58.2873 11.8624C58.7179 11.7645 59.3519 11.7044 59.6972 11.7287C60.0425 11.7531 59.6061 11.8632 58.7268 11.9734ZM67.8845 12.6196C67.6677 12.6904 67.1582 12.7238 66.7523 12.6939C66.3085 12.661 66.3897 12.6052 66.9546 12.554C68.1591 12.4445 68.3736 12.4596 67.8845 12.6196ZM38.417 10.8626C38.4106 10.9532 38.6873 11.0039 39.032 10.975C39.3767 10.9461 39.6609 10.8916 39.6635 10.8538C39.6662 10.8159 39.3894 10.7654 39.0485 10.7413C38.7076 10.7173 38.4234 10.7719 38.417 10.8626ZM35.5963 11.5483C34.6749 11.6805 33.5883 11.7629 33.1812 11.7314C32.7673 11.6993 32.9214 11.6174 33.5308 11.5448C34.1301 11.4738 34.4278 11.3523 34.1921 11.2751C33.9565 11.1979 34.2843 11.2222 34.9209 11.3293C35.89 11.4923 36.0241 11.4634 35.7421 11.1518C35.4543 10.8329 35.5395 10.8173 36.339 11.0438C37.158 11.2758 37.0677 11.3374 35.5963 11.5483ZM62.8814 12.8928C62.6646 12.9636 62.1551 12.997 61.7492 12.9671C61.3054 12.9342 61.3866 12.8784 61.9515 12.8272C63.156 12.7177 63.3705 12.7329 62.8814 12.8928ZM52.6312 12.4826C51.4041 12.5939 50.1377 12.5045 50.1516 12.3076C50.1576 12.222 50.9299 12.2071 51.8671 12.2745C53.1954 12.3701 53.3641 12.4161 52.6312 12.4826ZM31.7078 11.874C31.4963 11.992 31.1771 12.0405 30.998 11.9819C30.8196 11.9232 30.223 11.9297 29.6726 11.9962C29.06 12.0704 29.1392 12.0149 29.8777 11.8529C31.266 11.5481 32.2701 11.5598 31.7078 11.874ZM51.2268 13.5969C50.4389 13.7896 50.4602 13.7966 51.457 13.6723C52.0616 13.5968 52.5588 13.5085 52.561 13.4762C52.5701 13.348 52.0554 13.3945 51.2268 13.5969ZM28.1312 12.2276C28.0492 12.4897 27.809 12.539 27.3063 12.3968C26.8745 12.2744 26.4543 12.2426 26.2318 12.3155C26.0303 12.3811 25.2312 12.431 24.4553 12.4262C23.0835 12.4179 23.0876 12.4122 24.6153 12.225C25.4794 12.1191 26.5354 12.0555 26.9614 12.0837C27.3881 12.112 27.7415 12.0649 27.7475 11.9792C27.7536 11.8935 27.8683 11.8311 28.0028 11.8406C28.1373 11.8501 28.1954 12.0243 28.1312 12.2276ZM48.1997 13.4839C48.1973 13.5176 47.7597 13.5564 47.2267 13.5701C46.6713 13.5843 46.4245 13.5406 46.6477 13.4677C47.022 13.3453 48.2086 13.3577 48.1997 13.4839ZM21.4533 12.6371C19.9777 12.7661 19.2424 12.6538 20.5818 12.504C21.2518 12.4292 21.9296 12.4103 22.0873 12.4622C22.2456 12.514 21.9604 12.5927 21.4533 12.6371ZM38.9926 14.5799C38.7811 14.6979 38.4777 14.7517 38.3182 14.6994C38.1586 14.6471 38.2171 14.5424 38.4486 14.467C39.0773 14.2615 39.431 14.335 38.9926 14.5799ZM41.4431 15.4131C41.7066 15.5458 41.3471 15.7766 40.5896 15.9611C39.8695 16.1362 39.2859 16.2056 39.2923 16.1149C39.2987 16.0242 38.5127 16.0826 37.5457 16.2445C36.5786 16.4064 35.2349 16.5826 34.5589 16.6359C33.3818 16.7288 33.387 16.7334 34.6763 16.7468C35.4164 16.7546 36.6139 16.6656 37.3379 16.5492C38.0613 16.4329 38.654 16.3931 38.6548 16.4612C38.6557 16.5292 39.4649 16.4147 40.4539 16.2069C41.4429 15.9991 42.3887 15.8737 42.5555 15.9284C42.7224 15.9831 43.2559 15.9349 43.7405 15.8213C44.3809 15.6716 44.4005 15.6327 43.8122 15.6795C43.3599 15.7157 42.5573 15.6204 41.9946 15.4639C41.2621 15.26 41.1116 15.2461 41.4431 15.4131ZM22.2495 14.6051C21.6092 14.7537 20.2157 15.0169 19.1525 15.19C18.0893 15.3631 17.6153 15.4773 18.0992 15.4437C18.6908 15.4026 18.827 15.432 18.5165 15.5334C18.2627 15.6163 17.8421 15.6355 17.5815 15.5759C17.3216 15.5166 16.1551 15.6444 14.9904 15.8603C13.8258 16.0762 12.5789 16.2309 12.22 16.2043C11.7652 16.1705 11.7671 16.1349 12.2246 16.0872C12.5867 16.0495 13.5497 15.8305 14.3652 15.6006C15.6155 15.2479 22.3752 14.2621 23.1625 14.3174C23.3008 14.327 22.8898 14.4564 22.2495 14.6051ZM24.3293 16.2783C24.3232 16.364 23.978 16.4101 23.5614 16.3807C23.1448 16.3513 21.1315 16.6143 19.087 16.9652C17.0426 17.3162 15.6947 17.4708 16.0924 17.3092C16.7126 17.0565 23.3677 16.0539 24.0874 16.1047C24.2262 16.1145 24.3353 16.1926 24.3293 16.2783ZM29.6421 16.9402C29.4616 16.9993 29.7073 17.0754 30.1889 17.1094C30.6706 17.1434 30.9245 17.1026 30.7541 17.0187C30.5837 16.935 30.3374 16.8589 30.2073 16.8497C30.0771 16.8405 29.8225 16.8812 29.6421 16.9402Z" fill="#F1592A"/>
</svg>
