<svg width="80" height="80" viewBox="0 0 80 80" fill="none" xmlns="http://www.w3.org/2000/svg">
<path d="M59.1666 23.4997C58.3666 23.3664 57.5333 23.3331 56.6666 23.3331H23.3333C22.4 23.3331 21.5 23.3998 20.6333 23.5331C21.1 22.5998 21.7666 21.7332 22.5666 20.9332L33.4 10.0665C37.9666 5.53317 45.3666 5.53317 49.9333 10.0665L55.7666 15.9664C57.9 18.0664 59.0333 20.7331 59.1666 23.4997Z" fill="white"/>
<path d="M16.6667 50C9.30004 50 3.33337 55.9667 3.33337 63.3333C3.33337 65.8333 4.03337 68.2 5.26671 70.2C7.56671 74.0667 11.8 76.6667 16.6667 76.6667C21.5334 76.6667 25.7667 74.0667 28.0667 70.2C29.3 68.2 30 65.8333 30 63.3333C30 55.9667 24.0334 50 16.6667 50ZM21.6334 65.7666H19.1667V68.3667C19.1667 69.7334 18.0334 70.8667 16.6667 70.8667C15.3 70.8667 14.1667 69.7334 14.1667 68.3667V65.7666H11.7C10.3334 65.7666 9.20004 64.6333 9.20004 63.2666C9.20004 61.8999 10.3334 60.7666 11.7 60.7666H14.1667V58.4001C14.1667 57.0334 15.3 55.9001 16.6667 55.9001C18.0334 55.9001 19.1667 57.0334 19.1667 58.4001V60.7666H21.6334C23 60.7666 24.1334 61.8999 24.1334 63.2666C24.1334 64.6333 23.0334 65.7666 21.6334 65.7666Z" fill="white"/>
<path opacity="0.4" d="M73.3333 40.0002V56.6668C73.3333 66.6668 66.6666 73.3335 56.6666 73.3335H25.4333C26.4666 72.4668 27.3666 71.4002 28.0666 70.2002C29.3 68.2002 30 65.8335 30 63.3335C30 55.9668 24.0333 50.0002 16.6666 50.0002C12.6666 50.0002 9.09996 51.7668 6.66663 54.5334V40.0002C6.66663 30.9335 12.1333 24.6002 20.6333 23.5335C21.5 23.4002 22.4 23.3335 23.3333 23.3335H56.6666C57.5333 23.3335 58.3666 23.3668 59.1666 23.5001C67.7666 24.5001 73.3333 30.8668 73.3333 40.0002Z" fill="white"/>
<path d="M73.3333 41.6665H63.3333C59.6666 41.6665 56.6666 44.6665 56.6666 48.3332C56.6666 51.9998 59.6666 54.9998 63.3333 54.9998H73.3333" fill="white"/>
</svg>
